# MagicaVoxel @ Ephtracy

# group
o 

# material
mtllib Staff.mtl
usemtl palette

# normals
vn -1 0 0
vn 1 0 0
vn 0 0 1
vn 0 0 -1
vn 0 -1 0
vn 0 1 0

# texcoords
vt 0.0371094 0.5
vt 0.0410156 0.5
vt 0.0527344 0.5
vt 0.0683594 0.5
vt 0.0722656 0.5

# verts
v -0.2 1.7 -1.49012e-008
v -0.2 1.7 -0.1
v -0.2 1.8 -1.49012e-008
v -0.2 1.8 -0.1
v -0.2 1.9 -1.49012e-008
v -0.2 1.9 -0.1
v -0.1 0 -1.49012e-008
v -0.1 0 -0.1
v -0.1 0.1 -1.49012e-008
v -0.1 0.1 -0.1
v -0.1 1.5 -1.49012e-008
v -0.1 1.5 -0.1
v -0.1 1.6 -1.49012e-008
v -0.1 1.6 -0.1
v -0.1 1.7 0.1
v -0.1 1.7 -1.49012e-008
v -0.1 1.7 -0.1
v -0.1 1.7 -0.2
v -0.1 1.8 0.1
v -0.1 1.8 -1.49012e-008
v -0.1 1.8 -0.1
v -0.1 1.8 -0.2
v -0.1 1.9 0.1
v -0.1 1.9 -1.49012e-008
v -0.1 1.9 -0.1
v -0.1 1.9 -0.2
v -0.1 2 -1.49012e-008
v -0.1 2 -0.1
v 0 1.7 -1.49012e-008
v 0 1.7 -0.1
v 0 1.8 -1.49012e-008
v 0 1.8 -0.1
v -0.1 1.7 -1.49012e-008
v -0.1 1.7 -0.1
v -0.1 1.8 -1.49012e-008
v -0.1 1.8 -0.1
v 0 0 -1.49012e-008
v 0 0 -0.1
v 0 0.1 -1.49012e-008
v 0 0.1 -0.1
v 0 1.5 -1.49012e-008
v 0 1.5 -0.1
v 0 1.6 -1.49012e-008
v 0 1.6 -0.1
v 0 1.7 0.1
v 0 1.7 -1.49012e-008
v 0 1.7 -0.1
v 0 1.7 -0.2
v 0 1.8 0.1
v 0 1.8 -1.49012e-008
v 0 1.8 -0.1
v 0 1.8 -0.2
v 0 1.9 0.1
v 0 1.9 -1.49012e-008
v 0 1.9 -0.1
v 0 1.9 -0.2
v 0 2 -1.49012e-008
v 0 2 -0.1
v 0.1 1.7 -1.49012e-008
v 0.1 1.7 -0.1
v 0.1 1.8 -1.49012e-008
v 0.1 1.8 -0.1
v 0.1 1.9 -1.49012e-008
v 0.1 1.9 -0.1
v -0.1 1.7 0.1
v -0.1 1.8 0.1
v -0.1 1.9 0.1
v 0 1.7 0.1
v 0 1.8 0.1
v 0 1.9 0.1
v -0.2 1.7 -1.49012e-008
v -0.2 1.8 -1.49012e-008
v -0.2 1.9 -1.49012e-008
v -0.1 0 -1.49012e-008
v -0.1 0.1 -1.49012e-008
v -0.1 1.5 -1.49012e-008
v -0.1 1.6 -1.49012e-008
v -0.1 1.7 -1.49012e-008
v -0.1 1.8 -1.49012e-008
v -0.1 1.9 -1.49012e-008
v -0.1 2 -1.49012e-008
v 0 0 -1.49012e-008
v 0 0.1 -1.49012e-008
v 0 1.5 -1.49012e-008
v 0 1.6 -1.49012e-008
v 0 1.7 -1.49012e-008
v 0 1.8 -1.49012e-008
v 0 1.9 -1.49012e-008
v 0 2 -1.49012e-008
v 0.1 1.7 -1.49012e-008
v 0.1 1.8 -1.49012e-008
v 0.1 1.9 -1.49012e-008
v -0.1 1.7 -0.1
v -0.1 1.8 -0.1
v 0 1.7 -0.1
v 0 1.8 -0.1
v -0.1 1.7 -1.49012e-008
v -0.1 1.8 -1.49012e-008
v 0 1.7 -1.49012e-008
v 0 1.8 -1.49012e-008
v -0.2 1.7 -0.1
v -0.2 1.8 -0.1
v -0.2 1.9 -0.1
v -0.1 0 -0.1
v -0.1 0.1 -0.1
v -0.1 1.5 -0.1
v -0.1 1.6 -0.1
v -0.1 1.7 -0.1
v -0.1 1.8 -0.1
v -0.1 1.9 -0.1
v -0.1 2 -0.1
v 0 0 -0.1
v 0 0.1 -0.1
v 0 1.5 -0.1
v 0 1.6 -0.1
v 0 1.7 -0.1
v 0 1.8 -0.1
v 0 1.9 -0.1
v 0 2 -0.1
v 0.1 1.7 -0.1
v 0.1 1.8 -0.1
v 0.1 1.9 -0.1
v -0.1 1.7 -0.2
v -0.1 1.8 -0.2
v -0.1 1.9 -0.2
v 0 1.7 -0.2
v 0 1.8 -0.2
v 0 1.9 -0.2
v -0.1 0 -1.49012e-008
v 0 0 -1.49012e-008
v -0.1 0 -0.1
v 0 0 -0.1
v -0.1 1.7 0.1
v 0 1.7 0.1
v -0.2 1.7 -1.49012e-008
v -0.1 1.7 -1.49012e-008
v 0 1.7 -1.49012e-008
v 0.1 1.7 -1.49012e-008
v -0.2 1.7 -0.1
v -0.1 1.7 -0.1
v 0 1.7 -0.1
v 0.1 1.7 -0.1
v -0.1 1.7 -0.2
v 0 1.7 -0.2
v -0.1 1.8 -1.49012e-008
v 0 1.8 -1.49012e-008
v -0.1 1.8 -0.1
v 0 1.8 -0.1
v -0.1 1.7 -1.49012e-008
v 0 1.7 -1.49012e-008
v -0.1 1.7 -0.1
v 0 1.7 -0.1
v -0.1 1.9 0.1
v 0 1.9 0.1
v -0.2 1.9 -1.49012e-008
v -0.1 1.9 -1.49012e-008
v 0 1.9 -1.49012e-008
v 0.1 1.9 -1.49012e-008
v -0.2 1.9 -0.1
v -0.1 1.9 -0.1
v 0 1.9 -0.1
v 0.1 1.9 -0.1
v -0.1 1.9 -0.2
v 0 1.9 -0.2
v -0.1 2 -1.49012e-008
v 0 2 -1.49012e-008
v -0.1 2 -0.1
v 0 2 -0.1

# faces
f 3/3/1 2/3/1 1/3/1
f 4/3/1 2/3/1 3/3/1
f 5/1/1 4/1/1 3/1/1
f 6/1/1 4/1/1 5/1/1
f 9/5/1 8/5/1 7/5/1
f 10/5/1 8/5/1 9/5/1
f 11/4/1 10/4/1 9/4/1
f 12/4/1 10/4/1 11/4/1
f 13/5/1 12/5/1 11/5/1
f 14/5/1 12/5/1 13/5/1
f 16/3/1 14/3/1 13/3/1
f 17/3/1 14/3/1 16/3/1
f 19/3/1 16/3/1 15/3/1
f 20/3/1 16/3/1 19/3/1
f 21/3/1 18/3/1 17/3/1
f 22/3/1 18/3/1 21/3/1
f 23/1/1 20/1/1 19/1/1
f 24/1/1 20/1/1 23/1/1
f 25/1/1 22/1/1 21/1/1
f 26/1/1 22/1/1 25/1/1
f 27/2/1 25/2/1 24/2/1
f 28/2/1 25/2/1 27/2/1
f 31/3/1 30/3/1 29/3/1
f 32/3/1 30/3/1 31/3/1
f 33/3/2 34/3/2 35/3/2
f 35/3/2 34/3/2 36/3/2
f 37/5/2 38/5/2 39/5/2
f 39/5/2 38/5/2 40/5/2
f 39/4/2 40/4/2 41/4/2
f 41/4/2 40/4/2 42/4/2
f 41/5/2 42/5/2 43/5/2
f 43/5/2 42/5/2 44/5/2
f 43/3/2 44/3/2 46/3/2
f 46/3/2 44/3/2 47/3/2
f 45/3/2 46/3/2 49/3/2
f 49/3/2 46/3/2 50/3/2
f 47/3/2 48/3/2 51/3/2
f 51/3/2 48/3/2 52/3/2
f 49/1/2 50/1/2 53/1/2
f 53/1/2 50/1/2 54/1/2
f 51/1/2 52/1/2 55/1/2
f 55/1/2 52/1/2 56/1/2
f 54/2/2 55/2/2 57/2/2
f 57/2/2 55/2/2 58/2/2
f 59/3/2 60/3/2 61/3/2
f 61/3/2 60/3/2 62/3/2
f 61/1/2 62/1/2 63/1/2
f 63/1/2 62/1/2 64/1/2
f 68/3/3 66/3/3 65/3/3
f 69/1/3 67/1/3 66/1/3
f 69/3/3 66/3/3 68/3/3
f 70/1/3 67/1/3 69/1/3
f 78/3/3 72/3/3 71/3/3
f 79/1/3 73/1/3 72/1/3
f 79/3/3 72/3/3 78/3/3
f 80/1/3 73/1/3 79/1/3
f 82/5/3 75/5/3 74/5/3
f 83/4/3 76/4/3 75/4/3
f 83/5/3 75/5/3 82/5/3
f 84/5/3 77/5/3 76/5/3
f 84/4/3 76/4/3 83/4/3
f 85/3/3 78/3/3 77/3/3
f 85/5/3 77/5/3 84/5/3
f 86/3/3 78/3/3 85/3/3
f 88/2/3 81/2/3 80/2/3
f 89/2/3 81/2/3 88/2/3
f 90/3/3 87/3/3 86/3/3
f 91/1/3 88/1/3 87/1/3
f 91/3/3 87/3/3 90/3/3
f 92/1/3 88/1/3 91/1/3
f 95/3/3 94/3/3 93/3/3
f 96/3/3 94/3/3 95/3/3
f 97/3/4 98/3/4 99/3/4
f 99/3/4 98/3/4 100/3/4
f 101/3/4 102/3/4 108/3/4
f 102/1/4 103/1/4 109/1/4
f 108/3/4 102/3/4 109/3/4
f 109/1/4 103/1/4 110/1/4
f 104/5/4 105/5/4 112/5/4
f 105/4/4 106/4/4 113/4/4
f 112/5/4 105/5/4 113/5/4
f 106/5/4 107/5/4 114/5/4
f 113/4/4 106/4/4 114/4/4
f 107/3/4 108/3/4 115/3/4
f 114/5/4 107/5/4 115/5/4
f 115/3/4 108/3/4 116/3/4
f 110/2/4 111/2/4 118/2/4
f 118/2/4 111/2/4 119/2/4
f 116/3/4 117/3/4 120/3/4
f 117/1/4 118/1/4 121/1/4
f 120/3/4 117/3/4 121/3/4
f 121/1/4 118/1/4 122/1/4
f 123/3/4 124/3/4 126/3/4
f 124/1/4 125/1/4 127/1/4
f 126/3/4 124/3/4 127/3/4
f 127/1/4 125/1/4 128/1/4
f 131/5/5 130/5/5 129/5/5
f 132/5/5 130/5/5 131/5/5
f 136/3/5 134/3/5 133/3/5
f 137/3/5 134/3/5 136/3/5
f 139/3/5 136/3/5 135/3/5
f 140/3/5 136/3/5 139/3/5
f 141/3/5 138/3/5 137/3/5
f 142/3/5 138/3/5 141/3/5
f 143/3/5 141/3/5 140/3/5
f 144/3/5 141/3/5 143/3/5
f 147/2/5 146/2/5 145/2/5
f 148/2/5 146/2/5 147/2/5
f 149/3/6 150/3/6 151/3/6
f 151/3/6 150/3/6 152/3/6
f 153/1/6 154/1/6 156/1/6
f 156/1/6 154/1/6 157/1/6
f 155/1/6 156/1/6 159/1/6
f 159/1/6 156/1/6 160/1/6
f 157/1/6 158/1/6 161/1/6
f 161/1/6 158/1/6 162/1/6
f 160/1/6 161/1/6 163/1/6
f 163/1/6 161/1/6 164/1/6
f 165/2/6 166/2/6 167/2/6
f 167/2/6 166/2/6 168/2/6
