# MagicaVoxel @ Ephtracy

# group
o SpellBook

# material
mtllib SpellBook.mtl
usemtl palette

# normals
vn -1 0 0
vn 1 0 0
vn 0 0 1
vn 0 0 -1
vn 0 -1 0
vn 0 1 0

# texcoords
vt 0.00195313 0.5
vt 0.0253906 0.5
vt 0.0292969 0.5
vt 0.0527344 0.5
vt 0.0566406 0.5
vt 0.0761719 0.5

# verts
v -0.8 0 0.3
v -0.8 0 -0.2
v -0.8 1.5 0.3
v -0.8 1.5 -0.2
v -0.6 0.9 0.4
v -0.6 0.9 0.3
v -0.6 1.1 0.4
v -0.6 1.1 0.3
v -0.5 0.6 0.4
v -0.5 0.6 0.3
v -0.5 0.9 0.4
v -0.5 0.9 0.3
v -0.5 1.1 0.4
v -0.5 1.1 0.3
v -0.5 1.2 0.4
v -0.5 1.2 0.3
v -0.4 0.5 0.4
v -0.4 0.5 0.3
v -0.4 0.6 0.4
v -0.4 0.6 0.3
v -0.4 0.9 -0.2
v -0.4 0.9 -0.3
v -0.4 1.4 0
v -0.4 1.4 -0.1
v -0.4 1.5 0
v -0.4 1.5 -0.1
v -0.4 1.5 -0.2
v -0.4 1.5 -0.3
v -0.4 1.6 -0.1
v -0.4 1.6 -0.2
v -0.3 0.3 0.4
v -0.3 0.3 0.3
v -0.3 0.5 0.4
v -0.3 0.5 0.3
v -0.3 1 0.4
v -0.3 1 0.3
v -0.3 1.1 0.4
v -0.3 1.1 0.3
v -0.2 0.6 0.4
v -0.2 0.6 0.3
v -0.2 0.7 0.4
v -0.2 0.7 0.3
v -0.2 0.9 -0.2
v -0.2 0.9 -0.3
v -0.2 1 -0.2
v -0.2 1 -0.3
v -0.1 0.3 0.4
v -0.1 0.3 0.3
v -0.1 0.4 0.4
v -0.1 0.4 0.3
v -0.1 0.7 0.4
v -0.1 0.7 0.3
v -0.1 0.8 0.4
v -0.1 0.8 0.3
v 0 0.5 0.4
v 0 0.5 0.3
v 0 0.6 0.4
v 0 0.6 0.3
v 0.1 0.3 0.4
v 0.1 0.3 0.3
v 0.1 0.4 0.4
v 0.1 0.4 0.3
v 0.2 0.6 0.4
v 0.2 0.6 0.3
v 0.2 0.7 0.4
v 0.2 0.7 0.3
v 0.3 0.7 0.4
v 0.3 0.7 0.3
v 0.3 0.8 0.4
v 0.3 0.8 0.3
v 0.3 1.1 0.4
v 0.3 1.1 0.3
v 0.3 1.2 0.4
v 0.3 1.2 0.3
v 0.4 1 0.4
v 0.4 1 0.3
v 0.4 1.1 0.4
v 0.4 1.1 0.3
v 0.5 0.6 0.4
v 0.5 0.6 0.3
v 0.5 0.6 -0.2
v 0.5 0.6 -0.3
v 0.5 0.9 0.4
v 0.5 0.9 0.3
v 0.5 0.9 -0.2
v 0.5 0.9 -0.3
v 0.6 0.6 0.2
v 0.6 0.6 -0.1
v 0.6 0.7 0.2
v 0.6 0.7 -0.1
v 0.6 0.8 0.2
v 0.6 0.8 -0.1
v 0.6 0.9 0.2
v 0.6 0.9 -0.1
v -0.6 0 0.2
v -0.6 0 -0.1
v -0.6 0.1 0.2
v -0.6 0.1 -0.1
v -0.6 1.4 0.2
v -0.6 1.4 -0.1
v -0.6 1.5 0.2
v -0.6 1.5 -0.1
v -0.5 1 0.4
v -0.5 1 0.3
v -0.5 1.1 0.4
v -0.5 1.1 0.3
v -0.4 0.7 0.4
v -0.4 0.7 0.3
v -0.4 0.8 0.4
v -0.4 0.8 0.3
v -0.4 1.1 0.4
v -0.4 1.1 0.3
v -0.4 1.2 0.4
v -0.4 1.2 0.3
v -0.3 0.6 0.4
v -0.3 0.6 0.3
v -0.3 0.7 0.4
v -0.3 0.7 0.3
v -0.3 0.9 -0.2
v -0.3 0.9 -0.3
v -0.3 1 -0.2
v -0.3 1 -0.3
v -0.2 0.3 0.4
v -0.2 0.3 0.3
v -0.2 0.4 0.4
v -0.2 0.4 0.3
v -0.1 0.5 0.4
v -0.1 0.5 0.3
v -0.1 0.6 0.4
v -0.1 0.6 0.3
v -0.1 0.9 -0.2
v -0.1 0.9 -0.3
v -0.1 1.4 0
v -0.1 1.4 -0.1
v -0.1 1.5 0
v -0.1 1.5 -0.1
v -0.1 1.5 -0.2
v -0.1 1.5 -0.3
v -0.1 1.6 -0.1
v -0.1 1.6 -0.2
v 0 0.3 0.4
v 0 0.3 0.3
v 0 0.4 0.4
v 0 0.4 0.3
v 0 0.7 0.4
v 0 0.7 0.3
v 0 0.8 0.4
v 0 0.8 0.3
v 0.1 0.6 0.4
v 0.1 0.6 0.3
v 0.1 0.7 0.4
v 0.1 0.7 0.3
v 0.2 0.3 0.4
v 0.2 0.3 0.3
v 0.2 0.5 0.4
v 0.2 0.5 0.3
v 0.2 1 0.4
v 0.2 1 0.3
v 0.2 1.1 0.4
v 0.2 1.1 0.3
v 0.3 0.5 0.4
v 0.3 0.5 0.3
v 0.3 0.6 0.4
v 0.3 0.6 0.3
v 0.4 0.1 0.2
v 0.4 0.1 -0.1
v 0.4 0.6 0.4
v 0.4 0.6 0.3
v 0.4 0.9 0.4
v 0.4 0.9 0.3
v 0.4 1.1 0.4
v 0.4 1.1 0.3
v 0.4 1.2 0.4
v 0.4 1.2 0.3
v 0.4 1.4 0.2
v 0.4 1.4 -0.1
v 0.5 0.9 0.4
v 0.5 0.9 0.3
v 0.5 1.1 0.4
v 0.5 1.1 0.3
v 0.6 0 0.3
v 0.6 0 0.2
v 0.6 0 -0.1
v 0.6 0 -0.2
v 0.6 0.2 0.3
v 0.6 0.2 0.2
v 0.6 0.2 -0.1
v 0.6 0.2 -0.2
v 0.6 0.6 0.4
v 0.6 0.6 0.3
v 0.6 0.6 0.2
v 0.6 0.6 -0.1
v 0.6 0.6 -0.2
v 0.6 0.6 -0.3
v 0.6 0.9 0.4
v 0.6 0.9 0.3
v 0.6 0.9 0.2
v 0.6 0.9 -0.1
v 0.6 0.9 -0.2
v 0.6 0.9 -0.3
v 0.6 1.3 0.3
v 0.6 1.3 0.2
v 0.6 1.3 -0.1
v 0.6 1.3 -0.2
v 0.6 1.5 0.3
v 0.6 1.5 0.2
v 0.6 1.5 -0.1
v 0.6 1.5 -0.2
v 0.7 0.6 0.3
v 0.7 0.6 -0.2
v 0.7 0.7 0.2
v 0.7 0.7 -0.1
v 0.7 0.8 0.2
v 0.7 0.8 -0.1
v 0.7 0.9 0.3
v 0.7 0.9 -0.2
v -0.6 0.9 0.4
v -0.6 1.1 0.4
v -0.5 0.6 0.4
v -0.5 0.9 0.4
v -0.5 1 0.4
v -0.5 1.1 0.4
v -0.5 1.2 0.4
v -0.4 0.5 0.4
v -0.4 0.6 0.4
v -0.4 0.7 0.4
v -0.4 0.8 0.4
v -0.4 0.9 0.4
v -0.4 1 0.4
v -0.4 1.1 0.4
v -0.4 1.2 0.4
v -0.3 0.3 0.4
v -0.3 0.5 0.4
v -0.3 0.6 0.4
v -0.3 0.7 0.4
v -0.3 1 0.4
v -0.3 1.1 0.4
v -0.2 0.3 0.4
v -0.2 0.4 0.4
v -0.2 0.6 0.4
v -0.2 0.7 0.4
v -0.1 0.3 0.4
v -0.1 0.4 0.4
v -0.1 0.5 0.4
v -0.1 0.6 0.4
v -0.1 0.7 0.4
v -0.1 0.8 0.4
v 0 0.3 0.4
v 0 0.4 0.4
v 0 0.5 0.4
v 0 0.6 0.4
v 0 0.7 0.4
v 0 0.8 0.4
v 0.1 0.3 0.4
v 0.1 0.4 0.4
v 0.1 0.6 0.4
v 0.1 0.7 0.4
v 0.2 0.3 0.4
v 0.2 0.5 0.4
v 0.2 0.6 0.4
v 0.2 0.7 0.4
v 0.2 1 0.4
v 0.2 1.1 0.4
v 0.3 0.5 0.4
v 0.3 0.6 0.4
v 0.3 0.7 0.4
v 0.3 0.8 0.4
v 0.3 0.9 0.4
v 0.3 1 0.4
v 0.3 1.1 0.4
v 0.3 1.2 0.4
v 0.4 0.6 0.4
v 0.4 0.9 0.4
v 0.4 1 0.4
v 0.4 1.1 0.4
v 0.4 1.2 0.4
v 0.5 0.6 0.4
v 0.5 0.9 0.4
v 0.5 1.1 0.4
v 0.6 0.6 0.4
v 0.6 0.9 0.4
v -0.8 0 0.3
v -0.8 1.5 0.3
v -0.6 0 0.3
v -0.6 0.9 0.3
v -0.6 1.1 0.3
v -0.6 1.5 0.3
v -0.5 0.6 0.3
v -0.5 0.9 0.3
v -0.5 1 0.3
v -0.5 1.1 0.3
v -0.5 1.2 0.3
v -0.4 0.5 0.3
v -0.4 0.6 0.3
v -0.4 0.7 0.3
v -0.4 0.8 0.3
v -0.4 1 0.3
v -0.4 1.1 0.3
v -0.4 1.2 0.3
v -0.3 0.3 0.3
v -0.3 0.5 0.3
v -0.3 0.6 0.3
v -0.3 0.7 0.3
v -0.3 1 0.3
v -0.3 1.1 0.3
v -0.2 0.3 0.3
v -0.2 0.4 0.3
v -0.2 0.6 0.3
v -0.2 0.7 0.3
v -0.1 0.3 0.3
v -0.1 0.4 0.3
v -0.1 0.5 0.3
v -0.1 0.6 0.3
v -0.1 0.7 0.3
v -0.1 0.8 0.3
v 0 0.3 0.3
v 0 0.4 0.3
v 0 0.5 0.3
v 0 0.6 0.3
v 0 0.7 0.3
v 0 0.8 0.3
v 0.1 0.3 0.3
v 0.1 0.4 0.3
v 0.1 0.6 0.3
v 0.1 0.7 0.3
v 0.2 0.3 0.3
v 0.2 0.5 0.3
v 0.2 0.6 0.3
v 0.2 0.7 0.3
v 0.2 1 0.3
v 0.2 1.1 0.3
v 0.3 0.5 0.3
v 0.3 0.6 0.3
v 0.3 0.7 0.3
v 0.3 0.8 0.3
v 0.3 1 0.3
v 0.3 1.1 0.3
v 0.3 1.2 0.3
v 0.4 0 0.3
v 0.4 0.1 0.3
v 0.4 0.6 0.3
v 0.4 0.9 0.3
v 0.4 1 0.3
v 0.4 1.1 0.3
v 0.4 1.2 0.3
v 0.4 1.4 0.3
v 0.4 1.5 0.3
v 0.5 0.1 0.3
v 0.5 0.2 0.3
v 0.5 0.6 0.3
v 0.5 0.9 0.3
v 0.5 1.1 0.3
v 0.5 1.3 0.3
v 0.5 1.4 0.3
v 0.6 0 0.3
v 0.6 0.2 0.3
v 0.6 0.6 0.3
v 0.6 0.9 0.3
v 0.6 1.3 0.3
v 0.6 1.5 0.3
v 0.7 0.6 0.3
v 0.7 0.9 0.3
v -0.4 1.4 0
v -0.4 1.5 0
v -0.1 1.4 0
v -0.1 1.5 0
v -0.6 0 -0.1
v -0.6 0.1 -0.1
v -0.6 1.4 -0.1
v -0.6 1.5 -0.1
v -0.4 1.4 -0.1
v -0.4 1.5 -0.1
v -0.4 1.6 -0.1
v -0.1 1.4 -0.1
v -0.1 1.5 -0.1
v -0.1 1.6 -0.1
v 0.4 0 -0.1
v 0.4 0.1 -0.1
v 0.4 1.4 -0.1
v 0.4 1.5 -0.1
v 0.5 0.1 -0.1
v 0.5 0.2 -0.1
v 0.5 1.3 -0.1
v 0.5 1.4 -0.1
v 0.6 0 -0.1
v 0.6 0.2 -0.1
v 0.6 0.6 -0.1
v 0.6 0.7 -0.1
v 0.6 0.8 -0.1
v 0.6 0.9 -0.1
v 0.6 1.3 -0.1
v 0.6 1.5 -0.1
v 0.7 0.7 -0.1
v 0.7 0.8 -0.1
v -0.6 0 0.2
v -0.6 0.1 0.2
v -0.6 1.4 0.2
v -0.6 1.5 0.2
v 0.4 0 0.2
v 0.4 0.1 0.2
v 0.4 1.4 0.2
v 0.4 1.5 0.2
v 0.5 0.1 0.2
v 0.5 0.2 0.2
v 0.5 1.3 0.2
v 0.5 1.4 0.2
v 0.6 0 0.2
v 0.6 0.2 0.2
v 0.6 0.6 0.2
v 0.6 0.7 0.2
v 0.6 0.8 0.2
v 0.6 0.9 0.2
v 0.6 1.3 0.2
v 0.6 1.5 0.2
v 0.7 0.7 0.2
v 0.7 0.8 0.2
v -0.8 0 -0.2
v -0.8 1.5 -0.2
v -0.6 0 -0.2
v -0.6 1.5 -0.2
v -0.4 0.9 -0.2
v -0.4 1.5 -0.2
v -0.4 1.6 -0.2
v -0.3 0.9 -0.2
v -0.3 1 -0.2
v -0.2 0.9 -0.2
v -0.2 1 -0.2
v -0.1 0.9 -0.2
v -0.1 1.5 -0.2
v -0.1 1.6 -0.2
v 0.4 0 -0.2
v 0.4 0.1 -0.2
v 0.4 1.4 -0.2
v 0.4 1.5 -0.2
v 0.5 0.1 -0.2
v 0.5 0.2 -0.2
v 0.5 0.6 -0.2
v 0.5 0.9 -0.2
v 0.5 1.3 -0.2
v 0.5 1.4 -0.2
v 0.6 0 -0.2
v 0.6 0.2 -0.2
v 0.6 0.6 -0.2
v 0.6 0.9 -0.2
v 0.6 1.3 -0.2
v 0.6 1.5 -0.2
v 0.7 0.6 -0.2
v 0.7 0.9 -0.2
v -0.4 0.9 -0.3
v -0.4 1.5 -0.3
v -0.3 0.9 -0.3
v -0.3 1 -0.3
v -0.2 0.9 -0.3
v -0.2 1 -0.3
v -0.1 0.9 -0.3
v -0.1 1.5 -0.3
v 0.5 0.6 -0.3
v 0.5 0.9 -0.3
v 0.6 0.6 -0.3
v 0.6 0.9 -0.3
v -0.8 0 0.3
v -0.6 0 0.3
v 0.4 0 0.3
v 0.6 0 0.3
v -0.6 0 0.2
v 0.4 0 0.2
v 0.6 0 0.2
v -0.6 0 -0.1
v 0.4 0 -0.1
v 0.6 0 -0.1
v -0.8 0 -0.2
v -0.6 0 -0.2
v 0.4 0 -0.2
v 0.6 0 -0.2
v -0.6 0.1 0.2
v 0.4 0.1 0.2
v -0.6 0.1 -0.1
v 0.4 0.1 -0.1
v -0.3 0.3 0.4
v -0.2 0.3 0.4
v -0.1 0.3 0.4
v 0 0.3 0.4
v 0.1 0.3 0.4
v 0.2 0.3 0.4
v -0.3 0.3 0.3
v -0.2 0.3 0.3
v -0.1 0.3 0.3
v 0 0.3 0.3
v 0.1 0.3 0.3
v 0.2 0.3 0.3
v -0.2 0.4 0.4
v -0.1 0.4 0.4
v 0 0.4 0.4
v 0.1 0.4 0.4
v -0.2 0.4 0.3
v -0.1 0.4 0.3
v 0 0.4 0.3
v 0.1 0.4 0.3
v -0.4 0.5 0.4
v -0.3 0.5 0.4
v 0.2 0.5 0.4
v 0.3 0.5 0.4
v -0.4 0.5 0.3
v -0.3 0.5 0.3
v 0.2 0.5 0.3
v 0.3 0.5 0.3
v -0.5 0.6 0.4
v -0.4 0.6 0.4
v -0.1 0.6 0.4
v 0 0.6 0.4
v 0.3 0.6 0.4
v 0.4 0.6 0.4
v 0.5 0.6 0.4
v 0.6 0.6 0.4
v -0.5 0.6 0.3
v -0.4 0.6 0.3
v -0.1 0.6 0.3
v 0 0.6 0.3
v 0.3 0.6 0.3
v 0.4 0.6 0.3
v 0.5 0.6 0.3
v 0.6 0.6 0.3
v 0.7 0.6 0.3
v 0.6 0.6 0.2
v 0.6 0.6 -0.1
v 0.5 0.6 -0.2
v 0.6 0.6 -0.2
v 0.7 0.6 -0.2
v 0.5 0.6 -0.3
v 0.6 0.6 -0.3
v -0.4 0.8 0.4
v -0.1 0.8 0.4
v 0 0.8 0.4
v 0.3 0.8 0.4
v -0.4 0.8 0.3
v -0.1 0.8 0.3
v 0 0.8 0.3
v 0.3 0.8 0.3
v 0.6 0.8 0.2
v 0.7 0.8 0.2
v 0.6 0.8 -0.1
v 0.7 0.8 -0.1
v -0.6 0.9 0.4
v -0.5 0.9 0.4
v 0.4 0.9 0.4
v 0.5 0.9 0.4
v -0.6 0.9 0.3
v -0.5 0.9 0.3
v 0.4 0.9 0.3
v 0.5 0.9 0.3
v -0.4 0.9 -0.2
v -0.3 0.9 -0.2
v -0.2 0.9 -0.2
v -0.1 0.9 -0.2
v -0.4 0.9 -0.3
v -0.3 0.9 -0.3
v -0.2 0.9 -0.3
v -0.1 0.9 -0.3
v -0.3 1 -0.2
v -0.2 1 -0.2
v -0.3 1 -0.3
v -0.2 1 -0.3
v -0.5 1.1 0.4
v -0.4 1.1 0.4
v 0.3 1.1 0.4
v 0.4 1.1 0.4
v -0.5 1.1 0.3
v -0.4 1.1 0.3
v 0.3 1.1 0.3
v 0.4 1.1 0.3
v -0.1 0.5 0.4
v 0 0.5 0.4
v -0.1 0.5 0.3
v 0 0.5 0.3
v -0.3 0.6 0.4
v -0.2 0.6 0.4
v 0.1 0.6 0.4
v 0.2 0.6 0.4
v -0.3 0.6 0.3
v -0.2 0.6 0.3
v 0.1 0.6 0.3
v 0.2 0.6 0.3
v -0.4 0.7 0.4
v -0.3 0.7 0.4
v -0.2 0.7 0.4
v -0.1 0.7 0.4
v 0 0.7 0.4
v 0.1 0.7 0.4
v 0.2 0.7 0.4
v 0.3 0.7 0.4
v -0.4 0.7 0.3
v -0.3 0.7 0.3
v -0.2 0.7 0.3
v -0.1 0.7 0.3
v 0 0.7 0.3
v 0.1 0.7 0.3
v 0.2 0.7 0.3
v 0.3 0.7 0.3
v 0.6 0.7 0.2
v 0.7 0.7 0.2
v 0.6 0.7 -0.1
v 0.7 0.7 -0.1
v 0.5 0.9 0.4
v 0.6 0.9 0.4
v 0.5 0.9 0.3
v 0.6 0.9 0.3
v 0.7 0.9 0.3
v 0.6 0.9 0.2
v 0.6 0.9 -0.1
v 0.5 0.9 -0.2
v 0.6 0.9 -0.2
v 0.7 0.9 -0.2
v 0.5 0.9 -0.3
v 0.6 0.9 -0.3
v -0.5 1 0.4
v -0.4 1 0.4
v -0.3 1 0.4
v 0.2 1 0.4
v 0.3 1 0.4
v 0.4 1 0.4
v -0.5 1 0.3
v -0.4 1 0.3
v -0.3 1 0.3
v 0.2 1 0.3
v 0.3 1 0.3
v 0.4 1 0.3
v -0.6 1.1 0.4
v -0.5 1.1 0.4
v -0.3 1.1 0.4
v 0.2 1.1 0.4
v 0.4 1.1 0.4
v 0.5 1.1 0.4
v -0.6 1.1 0.3
v -0.5 1.1 0.3
v -0.3 1.1 0.3
v 0.2 1.1 0.3
v 0.4 1.1 0.3
v 0.5 1.1 0.3
v -0.5 1.2 0.4
v -0.4 1.2 0.4
v 0.3 1.2 0.4
v 0.4 1.2 0.4
v -0.5 1.2 0.3
v -0.4 1.2 0.3
v 0.3 1.2 0.3
v 0.4 1.2 0.3
v -0.6 1.4 0.2
v 0.4 1.4 0.2
v -0.4 1.4 0
v -0.1 1.4 0
v -0.6 1.4 -0.1
v -0.4 1.4 -0.1
v -0.1 1.4 -0.1
v 0.4 1.4 -0.1
v -0.8 1.5 0.3
v -0.6 1.5 0.3
v 0.4 1.5 0.3
v 0.6 1.5 0.3
v -0.6 1.5 0.2
v 0.4 1.5 0.2
v 0.6 1.5 0.2
v -0.4 1.5 0
v -0.1 1.5 0
v -0.6 1.5 -0.1
v -0.4 1.5 -0.1
v -0.1 1.5 -0.1
v 0.4 1.5 -0.1
v 0.6 1.5 -0.1
v -0.8 1.5 -0.2
v -0.6 1.5 -0.2
v -0.4 1.5 -0.2
v -0.1 1.5 -0.2
v 0.4 1.5 -0.2
v 0.6 1.5 -0.2
v -0.4 1.5 -0.3
v -0.1 1.5 -0.3
v -0.4 1.6 -0.1
v -0.1 1.6 -0.1
v -0.4 1.6 -0.2
v -0.1 1.6 -0.2

# faces
f 3/4/1 2/4/1 1/4/1
f 4/4/1 2/4/1 3/4/1
f 7/5/1 6/5/1 5/5/1
f 8/5/1 6/5/1 7/5/1
f 11/6/1 10/6/1 9/6/1
f 12/6/1 10/6/1 11/6/1
f 15/5/1 14/5/1 13/5/1
f 16/5/1 14/5/1 15/5/1
f 19/6/1 18/6/1 17/6/1
f 20/6/1 18/6/1 19/6/1
f 25/5/1 24/5/1 23/5/1
f 26/5/1 24/5/1 25/5/1
f 27/5/1 22/5/1 21/5/1
f 28/5/1 22/5/1 27/5/1
f 29/5/1 27/5/1 26/5/1
f 30/5/1 27/5/1 29/5/1
f 33/6/1 32/6/1 31/6/1
f 34/6/1 32/6/1 33/6/1
f 37/6/1 36/6/1 35/6/1
f 38/6/1 36/6/1 37/6/1
f 41/6/1 40/6/1 39/6/1
f 42/6/1 40/6/1 41/6/1
f 45/5/1 44/5/1 43/5/1
f 46/5/1 44/5/1 45/5/1
f 49/6/1 48/6/1 47/6/1
f 50/6/1 48/6/1 49/6/1
f 53/6/1 52/6/1 51/6/1
f 54/6/1 52/6/1 53/6/1
f 57/6/1 56/6/1 55/6/1
f 58/6/1 56/6/1 57/6/1
f 61/6/1 60/6/1 59/6/1
f 62/6/1 60/6/1 61/6/1
f 65/6/1 64/6/1 63/6/1
f 66/6/1 64/6/1 65/6/1
f 69/6/1 68/6/1 67/6/1
f 70/6/1 68/6/1 69/6/1
f 73/5/1 72/5/1 71/5/1
f 74/5/1 72/5/1 73/5/1
f 77/5/1 76/5/1 75/5/1
f 78/5/1 76/5/1 77/5/1
f 83/4/1 80/4/1 79/4/1
f 84/4/1 80/4/1 83/4/1
f 85/4/1 82/4/1 81/4/1
f 86/4/1 82/4/1 85/4/1
f 89/4/1 88/4/1 87/4/1
f 90/4/1 88/4/1 89/4/1
f 93/4/1 92/4/1 91/4/1
f 94/4/1 92/4/1 93/4/1
f 95/4/2 96/4/2 97/4/2
f 97/4/2 96/4/2 98/4/2
f 99/4/2 100/4/2 101/4/2
f 101/4/2 100/4/2 102/4/2
f 103/5/2 104/5/2 105/5/2
f 105/5/2 104/5/2 106/5/2
f 107/6/2 108/6/2 109/6/2
f 109/6/2 108/6/2 110/6/2
f 111/5/2 112/5/2 113/5/2
f 113/5/2 112/5/2 114/5/2
f 115/6/2 116/6/2 117/6/2
f 117/6/2 116/6/2 118/6/2
f 119/5/2 120/5/2 121/5/2
f 121/5/2 120/5/2 122/5/2
f 123/6/2 124/6/2 125/6/2
f 125/6/2 124/6/2 126/6/2
f 127/6/2 128/6/2 129/6/2
f 129/6/2 128/6/2 130/6/2
f 133/5/2 134/5/2 135/5/2
f 135/5/2 134/5/2 136/5/2
f 131/5/2 132/5/2 137/5/2
f 137/5/2 132/5/2 138/5/2
f 136/5/2 137/5/2 139/5/2
f 139/5/2 137/5/2 140/5/2
f 141/6/2 142/6/2 143/6/2
f 143/6/2 142/6/2 144/6/2
f 145/6/2 146/6/2 147/6/2
f 147/6/2 146/6/2 148/6/2
f 149/6/2 150/6/2 151/6/2
f 151/6/2 150/6/2 152/6/2
f 153/6/2 154/6/2 155/6/2
f 155/6/2 154/6/2 156/6/2
f 157/6/2 158/6/2 159/6/2
f 159/6/2 158/6/2 160/6/2
f 161/6/2 162/6/2 163/6/2
f 163/6/2 162/6/2 164/6/2
f 167/6/2 168/6/2 169/6/2
f 169/6/2 168/6/2 170/6/2
f 171/5/2 172/5/2 173/5/2
f 173/5/2 172/5/2 174/5/2
f 165/6/2 166/6/2 175/6/2
f 175/6/2 166/6/2 176/6/2
f 177/5/2 178/5/2 179/5/2
f 179/5/2 178/5/2 180/5/2
f 181/4/2 182/4/2 185/4/2
f 185/4/2 182/4/2 186/4/2
f 183/4/2 184/4/2 187/4/2
f 187/4/2 184/4/2 188/4/2
f 185/2/2 186/2/2 190/2/2
f 190/2/2 186/2/2 191/2/2
f 187/2/2 188/2/2 192/2/2
f 192/2/2 188/2/2 193/2/2
f 189/4/2 190/4/2 195/4/2
f 195/4/2 190/4/2 196/4/2
f 193/4/2 194/4/2 199/4/2
f 199/4/2 194/4/2 200/4/2
f 196/2/2 197/2/2 201/2/2
f 201/2/2 197/2/2 202/2/2
f 198/2/2 199/2/2 203/2/2
f 203/2/2 199/2/2 204/2/2
f 201/4/2 202/4/2 205/4/2
f 205/4/2 202/4/2 206/4/2
f 203/4/2 204/4/2 207/4/2
f 207/4/2 204/4/2 208/4/2
f 209/4/2 210/4/2 211/4/2
f 211/4/2 210/4/2 212/4/2
f 209/4/2 211/4/2 213/4/2
f 212/4/2 210/4/2 214/4/2
f 209/4/2 213/4/2 215/4/2
f 213/4/2 214/4/2 215/4/2
f 214/4/2 210/4/2 216/4/2
f 215/4/2 214/4/2 216/4/2
f 220/5/3 218/5/3 217/5/3
f 221/5/3 218/5/3 220/5/3
f 222/5/3 218/5/3 221/5/3
f 225/6/3 220/6/3 219/6/3
f 226/6/3 220/6/3 225/6/3
f 227/6/3 220/6/3 226/6/3
f 228/5/3 221/5/3 220/5/3
f 228/6/3 220/6/3 227/6/3
f 229/5/3 221/5/3 228/5/3
f 230/5/3 223/5/3 222/5/3
f 231/5/3 223/5/3 230/5/3
f 233/6/3 225/6/3 224/6/3
f 233/6/3 226/6/3 225/6/3
f 234/6/3 226/6/3 233/6/3
f 235/6/3 226/6/3 234/6/3
f 236/6/3 229/6/3 228/6/3
f 236/6/3 228/6/3 227/6/3
f 238/6/3 234/6/3 233/6/3
f 238/6/3 233/6/3 232/6/3
f 239/6/3 234/6/3 238/6/3
f 240/6/3 234/6/3 239/6/3
f 243/6/3 241/6/3 240/6/3
f 243/6/3 240/6/3 239/6/3
f 244/6/3 241/6/3 243/6/3
f 245/6/3 241/6/3 244/6/3
f 246/6/3 241/6/3 245/6/3
f 247/6/3 237/6/3 236/6/3
f 247/6/3 236/6/3 227/6/3
f 248/6/3 243/6/3 242/6/3
f 248/6/3 244/6/3 243/6/3
f 249/6/3 244/6/3 248/6/3
f 250/6/3 244/6/3 249/6/3
f 251/6/3 246/6/3 245/6/3
f 251/6/3 247/6/3 246/6/3
f 252/6/3 247/6/3 251/6/3
f 253/6/3 237/6/3 247/6/3
f 253/6/3 247/6/3 252/6/3
f 255/6/3 250/6/3 249/6/3
f 255/6/3 251/6/3 250/6/3
f 255/6/3 252/6/3 251/6/3
f 256/6/3 252/6/3 255/6/3
f 257/6/3 252/6/3 256/6/3
f 258/6/3 255/6/3 254/6/3
f 258/6/3 256/6/3 255/6/3
f 259/6/3 256/6/3 258/6/3
f 260/6/3 256/6/3 259/6/3
f 262/6/3 237/6/3 253/6/3
f 263/6/3 237/6/3 262/6/3
f 264/6/3 261/6/3 260/6/3
f 264/6/3 260/6/3 259/6/3
f 265/6/3 261/6/3 264/6/3
f 266/6/3 261/6/3 265/6/3
f 267/6/3 262/6/3 253/6/3
f 268/6/3 262/6/3 267/6/3
f 269/6/3 262/6/3 268/6/3
f 272/6/3 266/6/3 265/6/3
f 272/6/3 268/6/3 267/6/3
f 272/6/3 267/6/3 266/6/3
f 273/5/3 269/5/3 268/5/3
f 273/6/3 268/6/3 272/6/3
f 274/5/3 269/5/3 273/5/3
f 275/5/3 271/5/3 270/5/3
f 276/5/3 271/5/3 275/5/3
f 278/5/3 274/5/3 273/5/3
f 278/5/3 275/5/3 274/5/3
f 279/5/3 275/5/3 278/5/3
f 280/4/3 278/4/3 277/4/3
f 281/4/3 278/4/3 280/4/3
f 284/4/3 283/4/3 282/4/3
f 285/4/3 283/4/3 284/4/3
f 286/4/3 283/4/3 285/4/3
f 287/4/3 283/4/3 286/4/3
f 288/2/3 285/2/3 284/2/3
f 289/2/3 285/2/3 288/2/3
f 291/2/3 287/2/3 286/2/3
f 292/2/3 287/2/3 291/2/3
f 293/2/3 288/2/3 284/2/3
f 294/2/3 288/2/3 293/2/3
f 297/2/3 291/2/3 290/2/3
f 298/2/3 291/2/3 297/2/3
f 299/2/3 287/2/3 292/2/3
f 300/2/3 293/2/3 284/2/3
f 301/2/3 293/2/3 300/2/3
f 303/2/3 296/2/3 295/2/3
f 304/2/3 298/2/3 297/2/3
f 304/2/3 299/2/3 298/2/3
f 305/2/3 299/2/3 304/2/3
f 306/2/3 300/2/3 284/2/3
f 308/2/3 303/2/3 302/2/3
f 309/2/3 296/2/3 303/2/3
f 309/2/3 303/2/3 308/2/3
f 310/2/3 307/2/3 306/2/3
f 310/2/3 306/2/3 284/2/3
f 311/2/3 307/2/3 310/2/3
f 314/2/3 296/2/3 309/2/3
f 315/2/3 296/2/3 314/2/3
f 316/2/3 310/2/3 284/2/3
f 318/2/3 313/2/3 312/2/3
f 319/2/3 313/2/3 318/2/3
f 322/2/3 317/2/3 316/2/3
f 322/2/3 316/2/3 284/2/3
f 323/2/3 317/2/3 322/2/3
f 325/2/3 321/2/3 320/2/3
f 326/2/3 322/2/3 284/2/3
f 328/2/3 325/2/3 324/2/3
f 329/2/3 321/2/3 325/2/3
f 329/2/3 325/2/3 328/2/3
f 331/2/3 299/2/3 305/2/3
f 332/2/3 327/2/3 326/2/3
f 334/2/3 321/2/3 329/2/3
f 335/2/3 321/2/3 334/2/3
f 336/2/3 331/2/3 330/2/3
f 337/2/3 299/2/3 331/2/3
f 337/2/3 331/2/3 336/2/3
f 338/2/3 287/2/3 299/2/3
f 338/2/3 299/2/3 337/2/3
f 339/2/3 333/2/3 332/2/3
f 339/2/3 326/2/3 284/2/3
f 339/2/3 332/2/3 326/2/3
f 340/2/3 333/2/3 339/2/3
f 341/2/3 333/2/3 340/2/3
f 343/2/3 337/2/3 336/2/3
f 344/2/3 337/2/3 343/2/3
f 345/2/3 287/2/3 338/2/3
f 346/2/3 287/2/3 345/2/3
f 347/2/3 287/2/3 346/2/3
f 348/2/3 342/2/3 341/2/3
f 348/4/3 340/4/3 339/4/3
f 348/2/3 341/2/3 340/2/3
f 349/2/3 342/2/3 348/2/3
f 350/2/3 342/2/3 349/2/3
f 351/2/3 342/2/3 350/2/3
f 352/2/3 346/2/3 345/2/3
f 352/2/3 345/2/3 344/2/3
f 353/2/3 346/2/3 352/2/3
f 354/4/3 347/4/3 346/4/3
f 354/2/3 346/2/3 353/2/3
f 355/4/3 348/4/3 339/4/3
f 355/4/3 349/4/3 348/4/3
f 356/2/3 350/2/3 349/2/3
f 356/4/3 349/4/3 355/4/3
f 357/2/3 350/2/3 356/2/3
f 358/2/3 353/2/3 352/2/3
f 358/2/3 352/2/3 351/2/3
f 359/4/3 354/4/3 353/4/3
f 359/2/3 353/2/3 358/2/3
f 360/4/3 347/4/3 354/4/3
f 360/4/3 354/4/3 359/4/3
f 361/4/3 358/4/3 357/4/3
f 362/4/3 358/4/3 361/4/3
f 365/5/3 364/5/3 363/5/3
f 366/5/3 364/5/3 365/5/3
f 371/2/3 370/2/3 369/2/3
f 372/2/3 370/2/3 371/2/3
f 375/5/3 373/5/3 372/5/3
f 376/5/3 373/5/3 375/5/3
f 377/2/3 368/2/3 367/2/3
f 378/2/3 368/2/3 377/2/3
f 379/2/3 375/2/3 374/2/3
f 380/2/3 375/2/3 379/2/3
f 381/4/3 378/4/3 377/4/3
f 381/2/3 379/2/3 378/2/3
f 382/2/3 379/2/3 381/2/3
f 383/2/3 379/2/3 382/2/3
f 384/4/3 380/4/3 379/4/3
f 384/2/3 379/2/3 383/2/3
f 385/4/3 381/4/3 377/4/3
f 385/4/3 382/4/3 381/4/3
f 386/2/3 383/2/3 382/2/3
f 386/4/3 382/4/3 385/4/3
f 387/2/3 383/2/3 386/2/3
f 388/2/3 383/2/3 387/2/3
f 389/2/3 383/2/3 388/2/3
f 390/2/3 383/2/3 389/2/3
f 391/4/3 384/4/3 383/4/3
f 391/2/3 383/2/3 390/2/3
f 392/4/3 380/4/3 384/4/3
f 392/4/3 384/4/3 391/4/3
f 393/4/3 389/4/3 388/4/3
f 394/4/3 389/4/3 393/4/3
f 395/2/4 396/2/4 399/2/4
f 399/2/4 396/2/4 400/2/4
f 397/2/4 398/2/4 401/2/4
f 401/2/4 398/2/4 402/2/4
f 399/4/4 400/4/4 403/4/4
f 400/2/4 401/2/4 403/2/4
f 403/2/4 401/2/4 404/2/4
f 404/2/4 401/2/4 405/2/4
f 401/4/4 402/4/4 406/4/4
f 405/2/4 401/2/4 406/2/4
f 399/4/4 403/4/4 407/4/4
f 403/4/4 404/4/4 407/4/4
f 404/2/4 405/2/4 408/2/4
f 407/4/4 404/4/4 408/4/4
f 408/2/4 405/2/4 409/2/4
f 409/2/4 405/2/4 410/2/4
f 410/2/4 405/2/4 411/2/4
f 411/2/4 405/2/4 412/2/4
f 405/4/4 406/4/4 413/4/4
f 412/2/4 405/2/4 413/2/4
f 406/4/4 402/4/4 414/4/4
f 413/4/4 406/4/4 414/4/4
f 410/4/4 411/4/4 415/4/4
f 415/4/4 411/4/4 416/4/4
f 417/4/4 418/4/4 419/4/4
f 419/4/4 418/4/4 420/4/4
f 419/2/4 420/2/4 421/2/4
f 421/2/4 420/2/4 422/2/4
f 419/2/4 421/2/4 424/2/4
f 419/2/4 424/2/4 426/2/4
f 424/2/4 425/2/4 426/2/4
f 426/2/4 425/2/4 427/2/4
f 419/2/4 426/2/4 428/2/4
f 422/5/4 423/5/4 429/5/4
f 429/5/4 423/5/4 430/5/4
f 419/2/4 428/2/4 431/2/4
f 428/2/4 429/2/4 431/2/4
f 431/2/4 429/2/4 432/2/4
f 432/2/4 429/2/4 433/2/4
f 433/2/4 429/2/4 434/2/4
f 431/4/4 432/4/4 435/4/4
f 432/2/4 433/2/4 435/2/4
f 435/2/4 433/2/4 436/2/4
f 436/2/4 433/2/4 437/2/4
f 437/2/4 433/2/4 438/2/4
f 438/2/4 433/2/4 439/2/4
f 433/4/4 434/4/4 440/4/4
f 439/2/4 433/2/4 440/2/4
f 431/4/4 435/4/4 441/4/4
f 435/4/4 436/4/4 441/4/4
f 436/2/4 437/2/4 442/2/4
f 441/4/4 436/4/4 442/4/4
f 442/2/4 437/2/4 443/2/4
f 438/2/4 439/2/4 444/2/4
f 439/4/4 440/4/4 445/4/4
f 444/2/4 439/2/4 445/2/4
f 440/4/4 434/4/4 446/4/4
f 445/4/4 440/4/4 446/4/4
f 443/4/4 444/4/4 447/4/4
f 447/4/4 444/4/4 448/4/4
f 449/5/4 450/5/4 451/5/4
f 451/5/4 450/5/4 452/5/4
f 452/5/4 450/5/4 454/5/4
f 453/5/4 454/5/4 455/5/4
f 454/5/4 450/5/4 456/5/4
f 455/5/4 454/5/4 456/5/4
f 457/4/4 458/4/4 459/4/4
f 459/4/4 458/4/4 460/4/4
f 465/4/5 462/4/5 461/4/5
f 465/2/5 463/2/5 462/2/5
f 466/4/5 464/4/5 463/4/5
f 466/2/5 463/2/5 465/2/5
f 467/4/5 464/4/5 466/4/5
f 468/4/5 465/4/5 461/4/5
f 471/4/5 468/4/5 461/4/5
f 472/2/5 469/2/5 468/2/5
f 472/4/5 468/4/5 471/4/5
f 473/4/5 470/4/5 469/4/5
f 473/2/5 469/2/5 472/2/5
f 474/4/5 470/4/5 473/4/5
f 477/6/5 476/6/5 475/6/5
f 478/6/5 476/6/5 477/6/5
f 485/6/5 480/6/5 479/6/5
f 486/6/5 480/6/5 485/6/5
f 487/6/5 482/6/5 481/6/5
f 488/6/5 482/6/5 487/6/5
f 489/6/5 484/6/5 483/6/5
f 490/6/5 484/6/5 489/6/5
f 495/6/5 492/6/5 491/6/5
f 496/6/5 492/6/5 495/6/5
f 497/6/5 494/6/5 493/6/5
f 498/6/5 494/6/5 497/6/5
f 503/6/5 500/6/5 499/6/5
f 504/6/5 500/6/5 503/6/5
f 505/6/5 502/6/5 501/6/5
f 506/6/5 502/6/5 505/6/5
f 515/6/5 508/6/5 507/6/5
f 516/6/5 508/6/5 515/6/5
f 517/6/5 510/6/5 509/6/5
f 518/6/5 510/6/5 517/6/5
f 519/6/5 512/6/5 511/6/5
f 520/6/5 512/6/5 519/6/5
f 521/4/5 514/4/5 513/4/5
f 522/4/5 514/4/5 521/4/5
f 524/4/5 523/4/5 522/4/5
f 525/4/5 523/4/5 524/4/5
f 527/4/5 523/4/5 525/4/5
f 528/4/5 523/4/5 527/4/5
f 529/4/5 527/4/5 526/4/5
f 530/4/5 527/4/5 529/4/5
f 535/6/5 532/6/5 531/6/5
f 536/6/5 532/6/5 535/6/5
f 537/6/5 534/6/5 533/6/5
f 538/6/5 534/6/5 537/6/5
f 541/4/5 540/4/5 539/4/5
f 542/4/5 540/4/5 541/4/5
f 547/5/5 544/5/5 543/5/5
f 548/5/5 544/5/5 547/5/5
f 549/5/5 546/5/5 545/5/5
f 550/5/5 546/5/5 549/5/5
f 555/5/5 552/5/5 551/5/5
f 556/5/5 552/5/5 555/5/5
f 557/5/5 554/5/5 553/5/5
f 558/5/5 554/5/5 557/5/5
f 561/5/5 560/5/5 559/5/5
f 562/5/5 560/5/5 561/5/5
f 567/5/5 564/5/5 563/5/5
f 568/5/5 564/5/5 567/5/5
f 569/5/5 566/5/5 565/5/5
f 570/5/5 566/5/5 569/5/5
f 571/6/6 572/6/6 573/6/6
f 573/6/6 572/6/6 574/6/6
f 575/6/6 576/6/6 579/6/6
f 579/6/6 576/6/6 580/6/6
f 577/6/6 578/6/6 581/6/6
f 581/6/6 578/6/6 582/6/6
f 583/6/6 584/6/6 591/6/6
f 591/6/6 584/6/6 592/6/6
f 585/6/6 586/6/6 593/6/6
f 593/6/6 586/6/6 594/6/6
f 587/6/6 588/6/6 595/6/6
f 595/6/6 588/6/6 596/6/6
f 589/6/6 590/6/6 597/6/6
f 597/6/6 590/6/6 598/6/6
f 599/4/6 600/4/6 601/4/6
f 601/4/6 600/4/6 602/4/6
f 603/4/6 604/4/6 605/4/6
f 605/4/6 604/4/6 606/4/6
f 606/4/6 607/4/6 608/4/6
f 608/4/6 607/4/6 609/4/6
f 609/4/6 607/4/6 611/4/6
f 611/4/6 607/4/6 612/4/6
f 610/4/6 611/4/6 613/4/6
f 613/4/6 611/4/6 614/4/6
f 615/5/6 616/5/6 621/5/6
f 616/6/6 617/6/6 622/6/6
f 621/5/6 616/5/6 622/5/6
f 622/6/6 617/6/6 623/6/6
f 618/6/6 619/6/6 624/6/6
f 619/5/6 620/5/6 625/5/6
f 624/6/6 619/6/6 625/6/6
f 625/5/6 620/5/6 626/5/6
f 627/5/6 628/5/6 633/5/6
f 633/5/6 628/5/6 634/5/6
f 629/6/6 630/6/6 635/6/6
f 635/6/6 630/6/6 636/6/6
f 631/5/6 632/5/6 637/5/6
f 637/5/6 632/5/6 638/5/6
f 639/5/6 640/5/6 643/5/6
f 643/5/6 640/5/6 644/5/6
f 641/5/6 642/5/6 645/5/6
f 645/5/6 642/5/6 646/5/6
f 647/6/6 648/6/6 649/6/6
f 649/6/6 648/6/6 650/6/6
f 647/6/6 649/6/6 651/6/6
f 651/6/6 649/6/6 652/6/6
f 650/6/6 648/6/6 653/6/6
f 653/6/6 648/6/6 654/6/6
f 655/4/6 656/4/6 659/4/6
f 656/2/6 657/2/6 659/2/6
f 657/4/6 658/4/6 660/4/6
f 659/2/6 657/2/6 660/2/6
f 660/4/6 658/4/6 661/4/6
f 655/4/6 659/4/6 664/4/6
f 662/5/6 663/5/6 665/5/6
f 665/5/6 663/5/6 666/5/6
f 655/4/6 664/4/6 669/4/6
f 664/2/6 665/2/6 670/2/6
f 669/4/6 664/4/6 670/4/6
f 670/2/6 665/2/6 671/2/6
f 666/2/6 667/2/6 672/2/6
f 667/4/6 668/4/6 673/4/6
f 672/2/6 667/2/6 673/2/6
f 673/4/6 668/4/6 674/4/6
f 671/5/6 672/5/6 675/5/6
f 675/5/6 672/5/6 676/5/6
f 677/5/6 678/5/6 679/5/6
f 679/5/6 678/5/6 680/5/6
