# MagicaVoxel @ Ephtracy

# group
o Handle

# material
mtllib Torch-3-Handle.mtl
usemtl palette

# normals
vn -1 0 0
vn 1 0 0
vn 0 0 1
vn 0 0 -1
vn 0 -1 0
vn 0 1 0

# texcoords
vt 0.00585938 0.5
vt 0.0722656 0.5

# verts
v -2.23517e-008 1.8 1.9
v -2.23517e-008 1.8 1.5
v -2.23517e-008 1.9 1.9
v -2.23517e-008 1.9 1.5
v 0.1 1.4 1.8
v 0.1 1.4 1.7
v 0.1 1.7 1.7
v 0.1 1.7 1.6
v 0.1 1.8 2
v 0.1 1.8 1.9
v 0.1 1.8 1.8
v 0.1 1.8 1.6
v 0.1 1.9 2
v 0.1 1.9 1.9
v 0.1 1.9 1.8
v 0.1 1.9 1.6
v 0.1 2 1.6
v 0.1 2 1.5
v 0.1 2.1 1.8
v 0.1 2.1 1.7
v 0.1 2.2 1.7
v 0.1 2.2 1.5
v 0.3 1.4 1.8
v 0.3 1.4 1.7
v 0.3 1.7 1.7
v 0.3 1.7 1.6
v 0.3 1.8 2
v 0.3 1.8 1.9
v 0.3 1.8 1.8
v 0.3 1.8 1.6
v 0.3 1.9 2
v 0.3 1.9 1.9
v 0.3 1.9 1.8
v 0.3 1.9 1.6
v 0.3 2 1.6
v 0.3 2 1.5
v 0.3 2.1 1.8
v 0.3 2.1 1.7
v 0.3 2.2 1.7
v 0.3 2.2 1.5
v 0.4 1.8 1.9
v 0.4 1.8 1.5
v 0.4 1.9 1.9
v 0.4 1.9 1.5
v 0.1 1.8 2
v 0.1 1.9 2
v 0.3 1.8 2
v 0.3 1.9 2
v -2.23517e-008 1.8 1.9
v -2.23517e-008 1.9 1.9
v 0.1 1.8 1.9
v 0.1 1.9 1.9
v 0.3 1.8 1.9
v 0.3 1.9 1.9
v 0.4 1.8 1.9
v 0.4 1.9 1.9
v 0.1 1.4 1.8
v 0.1 1.8 1.8
v 0.1 1.9 1.8
v 0.1 2.1 1.8
v 0.3 1.4 1.8
v 0.3 1.8 1.8
v 0.3 1.9 1.8
v 0.3 2.1 1.8
v 0.1 2.1 1.7
v 0.1 2.2 1.7
v 0.3 2.1 1.7
v 0.3 2.2 1.7
v 0.1 1.4 1.7
v 0.1 1.7 1.7
v 0.3 1.4 1.7
v 0.3 1.7 1.7
v 0.1 1.7 1.6
v 0.1 1.8 1.6
v 0.1 1.9 1.6
v 0.1 2 1.6
v 0.3 1.7 1.6
v 0.3 1.8 1.6
v 0.3 1.9 1.6
v 0.3 2 1.6
v -2.23517e-008 1.8 1.5
v -2.23517e-008 1.9 1.5
v 0.1 2 1.5
v 0.1 2.2 1.5
v 0.3 2 1.5
v 0.3 2.2 1.5
v 0.4 1.8 1.5
v 0.4 1.9 1.5
v 0.1 1.4 1.8
v 0.3 1.4 1.8
v 0.1 1.4 1.7
v 0.3 1.4 1.7
v 0.1 1.7 1.7
v 0.3 1.7 1.7
v 0.1 1.7 1.6
v 0.3 1.7 1.6
v 0.1 1.8 2
v 0.3 1.8 2
v -2.23517e-008 1.8 1.9
v 0.1 1.8 1.9
v 0.3 1.8 1.9
v 0.4 1.8 1.9
v 0.1 1.8 1.8
v 0.3 1.8 1.8
v 0.1 1.8 1.6
v 0.3 1.8 1.6
v -2.23517e-008 1.8 1.5
v 0.4 1.8 1.5
v 0.1 2 1.6
v 0.3 2 1.6
v 0.1 2 1.5
v 0.3 2 1.5
v 0.1 1.9 2
v 0.3 1.9 2
v -2.23517e-008 1.9 1.9
v 0.1 1.9 1.9
v 0.3 1.9 1.9
v 0.4 1.9 1.9
v 0.1 1.9 1.8
v 0.3 1.9 1.8
v 0.1 1.9 1.6
v 0.3 1.9 1.6
v -2.23517e-008 1.9 1.5
v 0.4 1.9 1.5
v 0.1 2.1 1.8
v 0.3 2.1 1.8
v 0.1 2.1 1.7
v 0.3 2.1 1.7
v 0.1 2.2 1.7
v 0.3 2.2 1.7
v 0.1 2.2 1.5
v 0.3 2.2 1.5

# faces
f 3/1/1 2/1/1 1/1/1
f 4/1/1 2/1/1 3/1/1
f 7/2/1 6/2/1 5/2/1
f 11/2/1 7/2/1 5/2/1
f 11/2/1 8/2/1 7/2/1
f 12/2/1 8/2/1 11/2/1
f 13/1/1 10/1/1 9/1/1
f 14/1/1 10/1/1 13/1/1
f 17/2/1 16/2/1 15/2/1
f 19/2/1 17/2/1 15/2/1
f 19/2/1 18/2/1 17/2/1
f 20/2/1 18/2/1 19/2/1
f 21/2/1 18/2/1 20/2/1
f 22/2/1 18/2/1 21/2/1
f 23/2/2 24/2/2 25/2/2
f 23/2/2 25/2/2 29/2/2
f 25/2/2 26/2/2 29/2/2
f 29/2/2 26/2/2 30/2/2
f 27/1/2 28/1/2 31/1/2
f 31/1/2 28/1/2 32/1/2
f 33/2/2 34/2/2 35/2/2
f 33/2/2 35/2/2 37/2/2
f 35/2/2 36/2/2 37/2/2
f 37/2/2 36/2/2 38/2/2
f 38/2/2 36/2/2 39/2/2
f 39/2/2 36/2/2 40/2/2
f 41/1/2 42/1/2 43/1/2
f 43/1/2 42/1/2 44/1/2
f 47/1/3 46/1/3 45/1/3
f 48/1/3 46/1/3 47/1/3
f 51/1/3 50/1/3 49/1/3
f 52/1/3 50/1/3 51/1/3
f 55/1/3 54/1/3 53/1/3
f 56/1/3 54/1/3 55/1/3
f 61/2/3 58/2/3 57/2/3
f 62/2/3 58/2/3 61/2/3
f 63/2/3 60/2/3 59/2/3
f 64/2/3 60/2/3 63/2/3
f 67/2/3 66/2/3 65/2/3
f 68/2/3 66/2/3 67/2/3
f 69/2/4 70/2/4 71/2/4
f 71/2/4 70/2/4 72/2/4
f 73/2/4 74/2/4 77/2/4
f 77/2/4 74/2/4 78/2/4
f 75/2/4 76/2/4 79/2/4
f 79/2/4 76/2/4 80/2/4
f 83/2/4 84/2/4 85/2/4
f 85/2/4 84/2/4 86/2/4
f 81/1/4 82/1/4 87/1/4
f 87/1/4 82/1/4 88/1/4
f 91/2/5 90/2/5 89/2/5
f 92/2/5 90/2/5 91/2/5
f 95/2/5 94/2/5 93/2/5
f 96/2/5 94/2/5 95/2/5
f 100/1/5 98/1/5 97/1/5
f 101/1/5 98/1/5 100/1/5
f 103/1/5 100/1/5 99/1/5
f 103/1/5 102/1/5 101/1/5
f 103/1/5 101/1/5 100/1/5
f 104/1/5 102/1/5 103/1/5
f 105/1/5 103/1/5 99/1/5
f 106/1/5 102/1/5 104/1/5
f 107/1/5 105/1/5 99/1/5
f 107/1/5 106/1/5 105/1/5
f 108/1/5 102/1/5 106/1/5
f 108/1/5 106/1/5 107/1/5
f 111/2/5 110/2/5 109/2/5
f 112/2/5 110/2/5 111/2/5
f 113/1/6 114/1/6 116/1/6
f 116/1/6 114/1/6 117/1/6
f 115/1/6 116/1/6 119/1/6
f 117/1/6 118/1/6 119/1/6
f 116/1/6 117/1/6 119/1/6
f 119/1/6 118/1/6 120/1/6
f 115/1/6 119/1/6 121/1/6
f 120/1/6 118/1/6 122/1/6
f 115/1/6 121/1/6 123/1/6
f 121/1/6 122/1/6 123/1/6
f 122/1/6 118/1/6 124/1/6
f 123/1/6 122/1/6 124/1/6
f 125/2/6 126/2/6 127/2/6
f 127/2/6 126/2/6 128/2/6
f 129/2/6 130/2/6 131/2/6
f 131/2/6 130/2/6 132/2/6
