# MagicaVoxel @ Ephtracy

# group
o Flame3

# material
mtllib Torch-0-Flame3.mtl
usemtl palette

# normals
vn -1 0 0
vn 1 0 0
vn 0 0 1
vn 0 0 -1
vn 0 -1 0
vn 0 1 0

# texcoords
vt 0.0488281 0.5
vt 0.0527344 0.5
vt 0.0566406 0.5

# verts
v -0.0999999 2.5 1.6
v -0.0999999 2.5 1.5
v -0.0999999 2.6 1.6
v -0.0999999 2.6 1.5
v -0.0999999 2.8 1.6
v -0.0999999 2.8 1.5
v -0.0999999 2.9 1.6
v -0.0999999 2.9 1.5
v 7.45058e-008 2.3 1.8
v 7.45058e-008 2.3 1.7
v 7.45058e-008 2.3 1.6
v 7.45058e-008 2.3 1.5
v 7.45058e-008 2.4 1.8
v 7.45058e-008 2.4 1.7
v 7.45058e-008 2.4 1.6
v 7.45058e-008 2.4 1.5
v 7.45058e-008 2.5 1.6
v 7.45058e-008 2.5 1.5
v 7.45058e-008 2.6 1.8
v 7.45058e-008 2.6 1.7
v 7.45058e-008 2.7 1.8
v 7.45058e-008 2.7 1.7
v 7.45058e-008 2.9 1.8
v 7.45058e-008 2.9 1.7
v 7.45058e-008 3 1.8
v 7.45058e-008 3 1.7
v 0.1 2.2 1.7
v 0.1 2.2 1.5
v 0.1 2.3 1.7
v 0.1 2.3 1.6
v 0.1 2.3 1.5
v 0.1 2.3 1.4
v 0.1 2.4 2
v 0.1 2.4 1.9
v 0.1 2.4 1.7
v 0.1 2.4 1.6
v 0.1 2.4 1.5
v 0.1 2.4 1.4
v 0.1 2.5 2
v 0.1 2.5 1.9
v 0.1 2.5 1.7
v 0.1 2.5 1.6
v 0.1 2.6 2
v 0.1 2.6 1.9
v 0.1 2.6 1.5
v 0.1 2.6 1.4
v 0.1 2.7 1.5
v 0.1 2.7 1.4
v 0.1 3.1 1.6
v 0.1 3.1 1.5
v 0.1 3.2 1.6
v 0.1 3.2 1.5
v 0.2 2.3 1.9
v 0.2 2.3 1.8
v 0.2 2.4 1.9
v 0.2 2.4 1.8
v 0.2 2.9 1.9
v 0.2 2.9 1.8
v 0.2 2.9 1.7
v 0.2 2.9 1.6
v 0.2 3 1.9
v 0.2 3 1.8
v 0.2 3 1.7
v 0.2 3 1.6
v 0.2 3.2 1.6
v 0.2 3.2 1.5
v 0.2 3.3 1.6
v 0.2 3.3 1.5
v 0.3 2.3 1.7
v 0.3 2.3 1.6
v 0.3 2.4 1.8
v 0.3 2.4 1.7
v 0.3 2.4 1.6
v 0.3 2.4 1.5
v 0.3 2.5 1.8
v 0.3 2.5 1.7
v 0.3 2.5 1.6
v 0.3 2.5 1.5
v 0.3 2.6 1.8
v 0.3 2.6 1.7
v 0.3 2.8 1.9
v 0.3 2.8 1.8
v 0.3 2.8 1.6
v 0.3 2.8 1.5
v 0.3 2.9 1.9
v 0.3 2.9 1.8
v 0.3 2.9 1.6
v 0.3 2.9 1.5
v 0.3 3 1.4
v 0.3 3 1.3
v 0.3 3.1 1.4
v 0.3 3.1 1.3
v 0.4 2.7 1.8
v 0.4 2.7 1.7
v 0.4 2.8 1.8
v 0.4 2.8 1.7
v 7.45058e-008 2.5 1.6
v 7.45058e-008 2.5 1.5
v 7.45058e-008 2.6 1.6
v 7.45058e-008 2.6 1.5
v 7.45058e-008 2.8 1.6
v 7.45058e-008 2.8 1.5
v 7.45058e-008 2.9 1.6
v 7.45058e-008 2.9 1.5
v 0.1 2.3 1.8
v 0.1 2.3 1.7
v 0.1 2.3 1.6
v 0.1 2.3 1.5
v 0.1 2.4 1.8
v 0.1 2.4 1.7
v 0.1 2.4 1.6
v 0.1 2.4 1.5
v 0.1 2.5 1.6
v 0.1 2.5 1.5
v 0.1 2.9 1.8
v 0.1 2.9 1.7
v 0.1 3 1.8
v 0.1 3 1.7
v 0.2 2.3 1.7
v 0.2 2.3 1.6
v 0.2 2.3 1.5
v 0.2 2.3 1.4
v 0.2 2.4 2
v 0.2 2.4 1.9
v 0.2 2.4 1.7
v 0.2 2.4 1.6
v 0.2 2.4 1.5
v 0.2 2.4 1.4
v 0.2 2.5 2
v 0.2 2.5 1.9
v 0.2 2.5 1.7
v 0.2 2.5 1.6
v 0.2 2.6 2
v 0.2 2.6 1.9
v 0.2 2.6 1.8
v 0.2 2.6 1.7
v 0.2 2.6 1.5
v 0.2 2.6 1.4
v 0.2 2.7 1.8
v 0.2 2.7 1.7
v 0.2 2.7 1.5
v 0.2 2.7 1.4
v 0.2 3.1 1.6
v 0.2 3.1 1.5
v 0.2 3.2 1.6
v 0.2 3.2 1.5
v 0.3 2.2 1.7
v 0.3 2.2 1.5
v 0.3 2.3 1.9
v 0.3 2.3 1.8
v 0.3 2.3 1.7
v 0.3 2.3 1.6
v 0.3 2.3 1.5
v 0.3 2.4 1.9
v 0.3 2.4 1.8
v 0.3 2.9 1.9
v 0.3 2.9 1.8
v 0.3 2.9 1.7
v 0.3 2.9 1.6
v 0.3 3 1.9
v 0.3 3 1.8
v 0.3 3 1.7
v 0.3 3 1.6
v 0.3 3.2 1.6
v 0.3 3.2 1.5
v 0.3 3.3 1.6
v 0.3 3.3 1.5
v 0.4 2.3 1.7
v 0.4 2.3 1.6
v 0.4 2.4 1.7
v 0.4 2.4 1.6
v 0.4 2.4 1.5
v 0.4 2.5 1.8
v 0.4 2.5 1.7
v 0.4 2.5 1.6
v 0.4 2.5 1.5
v 0.4 2.6 1.8
v 0.4 2.6 1.7
v 0.4 2.8 1.9
v 0.4 2.8 1.8
v 0.4 2.8 1.6
v 0.4 2.8 1.5
v 0.4 2.9 1.9
v 0.4 2.9 1.8
v 0.4 2.9 1.6
v 0.4 2.9 1.5
v 0.4 3 1.4
v 0.4 3 1.3
v 0.4 3.1 1.4
v 0.4 3.1 1.3
v 0.5 2.4 1.8
v 0.5 2.4 1.7
v 0.5 2.5 1.8
v 0.5 2.5 1.7
v 0.5 2.7 1.8
v 0.5 2.7 1.7
v 0.5 2.8 1.8
v 0.5 2.8 1.7
v 0.1 2.4 2
v 0.1 2.5 2
v 0.1 2.6 2
v 0.2 2.4 2
v 0.2 2.5 2
v 0.2 2.6 2
v 0.2 2.3 1.9
v 0.2 2.4 1.9
v 0.2 2.9 1.9
v 0.2 3 1.9
v 0.3 2.3 1.9
v 0.3 2.4 1.9
v 0.3 2.8 1.9
v 0.3 2.9 1.9
v 0.3 3 1.9
v 0.4 2.8 1.9
v 0.4 2.9 1.9
v 7.45058e-008 2.3 1.8
v 7.45058e-008 2.4 1.8
v 7.45058e-008 2.6 1.8
v 7.45058e-008 2.7 1.8
v 7.45058e-008 2.9 1.8
v 7.45058e-008 3 1.8
v 0.1 2.3 1.8
v 0.1 2.4 1.8
v 0.1 2.9 1.8
v 0.1 3 1.8
v 0.2 2.6 1.8
v 0.2 2.7 1.8
v 0.3 2.4 1.8
v 0.3 2.5 1.8
v 0.3 2.6 1.8
v 0.4 2.5 1.8
v 0.4 2.6 1.8
v 0.4 2.7 1.8
v 0.4 2.8 1.8
v 0.5 2.4 1.8
v 0.5 2.5 1.8
v 0.5 2.7 1.8
v 0.5 2.8 1.8
v 0.1 2.2 1.7
v 0.1 2.3 1.7
v 0.1 2.4 1.7
v 0.1 2.5 1.7
v 0.2 2.3 1.7
v 0.2 2.4 1.7
v 0.2 2.5 1.7
v 0.2 2.9 1.7
v 0.2 3 1.7
v 0.3 2.2 1.7
v 0.3 2.3 1.7
v 0.3 2.4 1.7
v 0.3 2.9 1.7
v 0.3 3 1.7
v 0.4 2.3 1.7
v 0.4 2.4 1.7
v -0.0999999 2.5 1.6
v -0.0999999 2.6 1.6
v -0.0999999 2.8 1.6
v -0.0999999 2.9 1.6
v 7.45058e-008 2.3 1.6
v 7.45058e-008 2.4 1.6
v 7.45058e-008 2.5 1.6
v 7.45058e-008 2.6 1.6
v 7.45058e-008 2.8 1.6
v 7.45058e-008 2.9 1.6
v 0.1 2.3 1.6
v 0.1 2.4 1.6
v 0.1 2.5 1.6
v 0.1 3.1 1.6
v 0.1 3.2 1.6
v 0.2 3.1 1.6
v 0.2 3.2 1.6
v 0.2 3.3 1.6
v 0.3 2.4 1.6
v 0.3 2.5 1.6
v 0.3 2.8 1.6
v 0.3 2.9 1.6
v 0.3 3.2 1.6
v 0.3 3.3 1.6
v 0.4 2.4 1.6
v 0.4 2.5 1.6
v 0.4 2.8 1.6
v 0.4 2.9 1.6
v 0.1 2.3 1.5
v 0.1 2.4 1.5
v 0.1 2.6 1.5
v 0.1 2.7 1.5
v 0.2 2.3 1.5
v 0.2 2.4 1.5
v 0.2 2.6 1.5
v 0.2 2.7 1.5
v 0.3 3 1.4
v 0.3 3.1 1.4
v 0.4 3 1.4
v 0.4 3.1 1.4
v 0.1 2.4 1.9
v 0.1 2.5 1.9
v 0.1 2.6 1.9
v 0.2 2.4 1.9
v 0.2 2.5 1.9
v 0.2 2.6 1.9
v 0.2 2.3 1.8
v 0.2 2.4 1.8
v 0.2 2.9 1.8
v 0.2 3 1.8
v 0.3 2.3 1.8
v 0.3 2.4 1.8
v 0.3 2.8 1.8
v 0.3 2.9 1.8
v 0.3 3 1.8
v 0.4 2.8 1.8
v 0.4 2.9 1.8
v 7.45058e-008 2.3 1.7
v 7.45058e-008 2.4 1.7
v 7.45058e-008 2.6 1.7
v 7.45058e-008 2.7 1.7
v 7.45058e-008 2.9 1.7
v 7.45058e-008 3 1.7
v 0.1 2.3 1.7
v 0.1 2.4 1.7
v 0.1 2.9 1.7
v 0.1 3 1.7
v 0.2 2.6 1.7
v 0.2 2.7 1.7
v 0.3 2.4 1.7
v 0.3 2.5 1.7
v 0.3 2.6 1.7
v 0.4 2.4 1.7
v 0.4 2.5 1.7
v 0.4 2.6 1.7
v 0.4 2.7 1.7
v 0.4 2.8 1.7
v 0.5 2.4 1.7
v 0.5 2.5 1.7
v 0.5 2.7 1.7
v 0.5 2.8 1.7
v 0.1 2.3 1.6
v 0.1 2.4 1.6
v 0.1 2.5 1.6
v 0.2 2.3 1.6
v 0.2 2.4 1.6
v 0.2 2.5 1.6
v 0.2 2.9 1.6
v 0.2 3 1.6
v 0.3 2.3 1.6
v 0.3 2.4 1.6
v 0.3 2.9 1.6
v 0.3 3 1.6
v 0.4 2.3 1.6
v 0.4 2.4 1.6
v -0.0999999 2.5 1.5
v -0.0999999 2.6 1.5
v -0.0999999 2.8 1.5
v -0.0999999 2.9 1.5
v 7.45058e-008 2.3 1.5
v 7.45058e-008 2.4 1.5
v 7.45058e-008 2.5 1.5
v 7.45058e-008 2.6 1.5
v 7.45058e-008 2.8 1.5
v 7.45058e-008 2.9 1.5
v 0.1 2.2 1.5
v 0.1 2.3 1.5
v 0.1 2.4 1.5
v 0.1 2.5 1.5
v 0.1 3.1 1.5
v 0.1 3.2 1.5
v 0.2 2.3 1.5
v 0.2 3.1 1.5
v 0.2 3.2 1.5
v 0.2 3.3 1.5
v 0.3 2.2 1.5
v 0.3 2.3 1.5
v 0.3 2.4 1.5
v 0.3 2.5 1.5
v 0.3 2.8 1.5
v 0.3 2.9 1.5
v 0.3 3.2 1.5
v 0.3 3.3 1.5
v 0.4 2.4 1.5
v 0.4 2.5 1.5
v 0.4 2.8 1.5
v 0.4 2.9 1.5
v 0.1 2.3 1.4
v 0.1 2.4 1.4
v 0.1 2.6 1.4
v 0.1 2.7 1.4
v 0.2 2.3 1.4
v 0.2 2.4 1.4
v 0.2 2.6 1.4
v 0.2 2.7 1.4
v 0.3 3 1.3
v 0.3 3.1 1.3
v 0.4 3 1.3
v 0.4 3.1 1.3
v 0.1 2.2 1.7
v 0.3 2.2 1.7
v 0.1 2.2 1.5
v 0.3 2.2 1.5
v 0.2 2.3 1.9
v 0.3 2.3 1.9
v 7.45058e-008 2.3 1.8
v 0.1 2.3 1.8
v 0.2 2.3 1.8
v 0.3 2.3 1.8
v 7.45058e-008 2.3 1.7
v 0.1 2.3 1.7
v 0.3 2.3 1.7
v 0.4 2.3 1.7
v 7.45058e-008 2.3 1.6
v 0.1 2.3 1.6
v 0.3 2.3 1.6
v 0.4 2.3 1.6
v 7.45058e-008 2.3 1.5
v 0.1 2.3 1.5
v 0.2 2.3 1.5
v 0.1 2.3 1.4
v 0.2 2.3 1.4
v 0.1 2.4 2
v 0.2 2.4 2
v 0.1 2.4 1.9
v 0.2 2.4 1.9
v 0.3 2.4 1.8
v 0.5 2.4 1.8
v 0.3 2.4 1.7
v 0.4 2.4 1.7
v 0.5 2.4 1.7
v 0.3 2.4 1.6
v 0.4 2.4 1.6
v 0.3 2.4 1.5
v 0.4 2.4 1.5
v -0.0999999 2.5 1.6
v 7.45058e-008 2.5 1.6
v -0.0999999 2.5 1.5
v 7.45058e-008 2.5 1.5
v 7.45058e-008 2.6 1.8
v 0.2 2.6 1.8
v 7.45058e-008 2.6 1.7
v 0.2 2.6 1.7
v 0.1 2.6 1.5
v 0.2 2.6 1.5
v 0.1 2.6 1.4
v 0.2 2.6 1.4
v 0.4 2.7 1.8
v 0.5 2.7 1.8
v 0.4 2.7 1.7
v 0.5 2.7 1.7
v 0.3 2.8 1.9
v 0.4 2.8 1.9
v 0.3 2.8 1.8
v 0.4 2.8 1.8
v -0.0999999 2.8 1.6
v 7.45058e-008 2.8 1.6
v 0.3 2.8 1.6
v 0.4 2.8 1.6
v -0.0999999 2.8 1.5
v 7.45058e-008 2.8 1.5
v 0.3 2.8 1.5
v 0.4 2.8 1.5
v 0.2 2.9 1.9
v 0.3 2.9 1.9
v 7.45058e-008 2.9 1.8
v 0.1 2.9 1.8
v 0.2 2.9 1.8
v 0.3 2.9 1.8
v 7.45058e-008 2.9 1.7
v 0.1 2.9 1.7
v 0.2 2.9 1.7
v 0.3 2.9 1.7
v 0.2 2.9 1.6
v 0.3 2.9 1.6
v 0.3 3 1.4
v 0.4 3 1.4
v 0.3 3 1.3
v 0.4 3 1.3
v 0.1 3.1 1.6
v 0.2 3.1 1.6
v 0.1 3.1 1.5
v 0.2 3.1 1.5
v 0.2 3.2 1.6
v 0.3 3.2 1.6
v 0.2 3.2 1.5
v 0.3 3.2 1.5
v 0.2 2.3 1.7
v 0.3 2.3 1.7
v 0.1 2.3 1.6
v 0.2 2.3 1.6
v 0.3 2.3 1.6
v 0.1 2.3 1.5
v 0.2 2.3 1.5
v 0.3 2.3 1.5
v 0.2 2.4 1.9
v 0.3 2.4 1.9
v 7.45058e-008 2.4 1.8
v 0.1 2.4 1.8
v 0.2 2.4 1.8
v 0.3 2.4 1.8
v 7.45058e-008 2.4 1.7
v 0.1 2.4 1.7
v 0.3 2.4 1.7
v 0.4 2.4 1.7
v 0.3 2.4 1.6
v 0.4 2.4 1.6
v 0.1 2.4 1.5
v 0.2 2.4 1.5
v 0.1 2.4 1.4
v 0.2 2.4 1.4
v 0.4 2.5 1.8
v 0.5 2.5 1.8
v 0.1 2.5 1.7
v 0.2 2.5 1.7
v 0.4 2.5 1.7
v 0.5 2.5 1.7
v 7.45058e-008 2.5 1.6
v 0.1 2.5 1.6
v 0.2 2.5 1.6
v 0.3 2.5 1.6
v 0.4 2.5 1.6
v 7.45058e-008 2.5 1.5
v 0.1 2.5 1.5
v 0.3 2.5 1.5
v 0.4 2.5 1.5
v 0.1 2.6 2
v 0.2 2.6 2
v 0.1 2.6 1.9
v 0.2 2.6 1.9
v 0.3 2.6 1.8
v 0.4 2.6 1.8
v 0.3 2.6 1.7
v 0.4 2.6 1.7
v -0.0999999 2.6 1.6
v 7.45058e-008 2.6 1.6
v -0.0999999 2.6 1.5
v 7.45058e-008 2.6 1.5
v 7.45058e-008 2.7 1.8
v 0.2 2.7 1.8
v 7.45058e-008 2.7 1.7
v 0.2 2.7 1.7
v 0.1 2.7 1.5
v 0.2 2.7 1.5
v 0.1 2.7 1.4
v 0.2 2.7 1.4
v 0.4 2.8 1.8
v 0.5 2.8 1.8
v 0.4 2.8 1.7
v 0.5 2.8 1.7
v 0.3 2.9 1.9
v 0.4 2.9 1.9
v 0.3 2.9 1.8
v 0.4 2.9 1.8
v -0.0999999 2.9 1.6
v 7.45058e-008 2.9 1.6
v 0.3 2.9 1.6
v 0.4 2.9 1.6
v -0.0999999 2.9 1.5
v 7.45058e-008 2.9 1.5
v 0.3 2.9 1.5
v 0.4 2.9 1.5
v 0.2 3 1.9
v 0.3 3 1.9
v 7.45058e-008 3 1.8
v 0.1 3 1.8
v 0.2 3 1.8
v 0.3 3 1.8
v 7.45058e-008 3 1.7
v 0.1 3 1.7
v 0.2 3 1.7
v 0.3 3 1.7
v 0.2 3 1.6
v 0.3 3 1.6
v 0.3 3.1 1.4
v 0.4 3.1 1.4
v 0.3 3.1 1.3
v 0.4 3.1 1.3
v 0.1 3.2 1.6
v 0.2 3.2 1.6
v 0.1 3.2 1.5
v 0.2 3.2 1.5
v 0.2 3.3 1.6
v 0.3 3.3 1.6
v 0.2 3.3 1.5
v 0.3 3.3 1.5

# faces
f 3/2/1 2/2/1 1/2/1
f 4/2/1 2/2/1 3/2/1
f 7/1/1 6/1/1 5/1/1
f 8/1/1 6/1/1 7/1/1
f 13/3/1 10/3/1 9/3/1
f 14/3/1 10/3/1 13/3/1
f 15/3/1 12/3/1 11/3/1
f 16/3/1 12/3/1 15/3/1
f 17/2/1 16/2/1 15/2/1
f 18/2/1 16/2/1 17/2/1
f 21/2/1 20/2/1 19/2/1
f 22/2/1 20/2/1 21/2/1
f 25/1/1 24/1/1 23/1/1
f 26/1/1 24/1/1 25/1/1
f 29/3/1 28/3/1 27/3/1
f 30/3/1 28/3/1 29/3/1
f 31/3/1 28/3/1 30/3/1
f 35/3/1 30/3/1 29/3/1
f 36/3/1 30/3/1 35/3/1
f 37/3/1 32/3/1 31/3/1
f 38/3/1 32/3/1 37/3/1
f 39/2/1 34/2/1 33/2/1
f 40/2/1 34/2/1 39/2/1
f 41/2/1 36/2/1 35/2/1
f 42/2/1 36/2/1 41/2/1
f 43/1/1 40/1/1 39/1/1
f 44/1/1 40/1/1 43/1/1
f 47/2/1 46/2/1 45/2/1
f 48/2/1 46/2/1 47/2/1
f 51/1/1 50/1/1 49/1/1
f 52/1/1 50/1/1 51/1/1
f 55/3/1 54/3/1 53/3/1
f 56/3/1 54/3/1 55/3/1
f 61/1/1 58/1/1 57/1/1
f 62/1/1 58/1/1 61/1/1
f 63/1/1 60/1/1 59/1/1
f 64/1/1 60/1/1 63/1/1
f 67/1/1 66/1/1 65/1/1
f 68/1/1 66/1/1 67/1/1
f 72/3/1 70/3/1 69/3/1
f 73/3/1 70/3/1 72/3/1
f 75/2/1 72/2/1 71/2/1
f 76/2/1 72/2/1 75/2/1
f 77/2/1 74/2/1 73/2/1
f 78/2/1 74/2/1 77/2/1
f 79/1/1 76/1/1 75/1/1
f 80/1/1 76/1/1 79/1/1
f 85/1/1 82/1/1 81/1/1
f 86/1/1 82/1/1 85/1/1
f 87/1/1 84/1/1 83/1/1
f 88/1/1 84/1/1 87/1/1
f 91/1/1 90/1/1 89/1/1
f 92/1/1 90/1/1 91/1/1
f 95/1/1 94/1/1 93/1/1
f 96/1/1 94/1/1 95/1/1
f 97/2/2 98/2/2 99/2/2
f 99/2/2 98/2/2 100/2/2
f 101/1/2 102/1/2 103/1/2
f 103/1/2 102/1/2 104/1/2
f 105/3/2 106/3/2 109/3/2
f 109/3/2 106/3/2 110/3/2
f 107/3/2 108/3/2 111/3/2
f 111/3/2 108/3/2 112/3/2
f 111/2/2 112/2/2 113/2/2
f 113/2/2 112/2/2 114/2/2
f 115/1/2 116/1/2 117/1/2
f 117/1/2 116/1/2 118/1/2
f 119/3/2 120/3/2 125/3/2
f 125/3/2 120/3/2 126/3/2
f 121/3/2 122/3/2 127/3/2
f 127/3/2 122/3/2 128/3/2
f 123/2/2 124/2/2 129/2/2
f 129/2/2 124/2/2 130/2/2
f 125/2/2 126/2/2 131/2/2
f 131/2/2 126/2/2 132/2/2
f 129/1/2 130/1/2 133/1/2
f 133/1/2 130/1/2 134/1/2
f 135/2/2 136/2/2 139/2/2
f 139/2/2 136/2/2 140/2/2
f 137/2/2 138/2/2 141/2/2
f 141/2/2 138/2/2 142/2/2
f 143/1/2 144/1/2 145/1/2
f 145/1/2 144/1/2 146/1/2
f 147/3/2 148/3/2 151/3/2
f 151/3/2 148/3/2 152/3/2
f 152/3/2 148/3/2 153/3/2
f 149/3/2 150/3/2 154/3/2
f 154/3/2 150/3/2 155/3/2
f 156/1/2 157/1/2 160/1/2
f 160/1/2 157/1/2 161/1/2
f 158/1/2 159/1/2 162/1/2
f 162/1/2 159/1/2 163/1/2
f 164/1/2 165/1/2 166/1/2
f 166/1/2 165/1/2 167/1/2
f 168/3/2 169/3/2 170/3/2
f 170/3/2 169/3/2 171/3/2
f 171/2/2 172/2/2 175/2/2
f 175/2/2 172/2/2 176/2/2
f 173/1/2 174/1/2 177/1/2
f 177/1/2 174/1/2 178/1/2
f 179/1/2 180/1/2 183/1/2
f 183/1/2 180/1/2 184/1/2
f 181/1/2 182/1/2 185/1/2
f 185/1/2 182/1/2 186/1/2
f 187/1/2 188/1/2 189/1/2
f 189/1/2 188/1/2 190/1/2
f 191/2/2 192/2/2 193/2/2
f 193/2/2 192/2/2 194/2/2
f 195/1/2 196/1/2 197/1/2
f 197/1/2 196/1/2 198/1/2
f 202/2/3 200/2/3 199/2/3
f 203/1/3 201/1/3 200/1/3
f 203/2/3 200/2/3 202/2/3
f 204/1/3 201/1/3 203/1/3
f 209/3/3 206/3/3 205/3/3
f 210/3/3 206/3/3 209/3/3
f 212/1/3 208/1/3 207/1/3
f 213/1/3 208/1/3 212/1/3
f 214/1/3 212/1/3 211/1/3
f 215/1/3 212/1/3 214/1/3
f 222/3/3 217/3/3 216/3/3
f 223/3/3 217/3/3 222/3/3
f 224/1/3 221/1/3 220/1/3
f 225/1/3 221/1/3 224/1/3
f 226/2/3 219/2/3 218/2/3
f 227/2/3 219/2/3 226/2/3
f 231/2/3 229/2/3 228/2/3
f 231/1/3 230/1/3 229/1/3
f 232/1/3 230/1/3 231/1/3
f 235/2/3 231/2/3 228/2/3
f 236/2/3 231/2/3 235/2/3
f 237/1/3 234/1/3 233/1/3
f 238/1/3 234/1/3 237/1/3
f 243/3/3 240/3/3 239/3/3
f 243/3/3 241/3/3 240/3/3
f 244/2/3 242/2/3 241/2/3
f 244/3/3 241/3/3 243/3/3
f 245/2/3 242/2/3 244/2/3
f 248/3/3 243/3/3 239/3/3
f 249/3/3 243/3/3 248/3/3
f 251/1/3 247/1/3 246/1/3
f 252/1/3 247/1/3 251/1/3
f 253/3/3 250/3/3 249/3/3
f 254/3/3 250/3/3 253/3/3
f 261/2/3 256/2/3 255/2/3
f 262/2/3 256/2/3 261/2/3
f 263/1/3 258/1/3 257/1/3
f 264/1/3 258/1/3 263/1/3
f 265/3/3 260/3/3 259/3/3
f 266/2/3 261/2/3 260/2/3
f 266/3/3 260/3/3 265/3/3
f 267/2/3 261/2/3 266/2/3
f 270/1/3 269/1/3 268/1/3
f 271/1/3 269/1/3 270/1/3
f 277/1/3 272/1/3 271/1/3
f 278/1/3 272/1/3 277/1/3
f 279/2/3 274/2/3 273/2/3
f 280/2/3 274/2/3 279/2/3
f 281/1/3 276/1/3 275/1/3
f 282/1/3 276/1/3 281/1/3
f 287/3/3 284/3/3 283/3/3
f 288/3/3 284/3/3 287/3/3
f 289/2/3 286/2/3 285/2/3
f 290/2/3 286/2/3 289/2/3
f 293/1/3 292/1/3 291/1/3
f 294/1/3 292/1/3 293/1/3
f 295/2/4 296/2/4 298/2/4
f 296/1/4 297/1/4 299/1/4
f 298/2/4 296/2/4 299/2/4
f 299/1/4 297/1/4 300/1/4
f 301/3/4 302/3/4 305/3/4
f 305/3/4 302/3/4 306/3/4
f 303/1/4 304/1/4 308/1/4
f 308/1/4 304/1/4 309/1/4
f 307/1/4 308/1/4 310/1/4
f 310/1/4 308/1/4 311/1/4
f 312/3/4 313/3/4 318/3/4
f 318/3/4 313/3/4 319/3/4
f 316/1/4 317/1/4 320/1/4
f 320/1/4 317/1/4 321/1/4
f 314/2/4 315/2/4 322/2/4
f 322/2/4 315/2/4 323/2/4
f 324/2/4 325/2/4 327/2/4
f 325/1/4 326/1/4 328/1/4
f 327/2/4 325/2/4 328/2/4
f 328/1/4 326/1/4 329/1/4
f 327/2/4 328/2/4 332/2/4
f 332/2/4 328/2/4 333/2/4
f 330/1/4 331/1/4 334/1/4
f 334/1/4 331/1/4 335/1/4
f 336/3/4 337/3/4 339/3/4
f 337/2/4 338/2/4 340/2/4
f 339/3/4 337/3/4 340/3/4
f 340/2/4 338/2/4 341/2/4
f 342/1/4 343/1/4 346/1/4
f 346/1/4 343/1/4 347/1/4
f 344/3/4 345/3/4 348/3/4
f 348/3/4 345/3/4 349/3/4
f 350/2/4 351/2/4 356/2/4
f 356/2/4 351/2/4 357/2/4
f 352/1/4 353/1/4 358/1/4
f 358/1/4 353/1/4 359/1/4
f 354/3/4 355/3/4 361/3/4
f 355/2/4 356/2/4 362/2/4
f 361/3/4 355/3/4 362/3/4
f 362/2/4 356/2/4 363/2/4
f 360/3/4 361/3/4 366/3/4
f 364/1/4 365/1/4 367/1/4
f 367/1/4 365/1/4 368/1/4
f 360/3/4 366/3/4 370/3/4
f 370/3/4 366/3/4 371/3/4
f 368/1/4 369/1/4 376/1/4
f 376/1/4 369/1/4 377/1/4
f 372/2/4 373/2/4 378/2/4
f 378/2/4 373/2/4 379/2/4
f 374/1/4 375/1/4 380/1/4
f 380/1/4 375/1/4 381/1/4
f 382/3/4 383/3/4 386/3/4
f 386/3/4 383/3/4 387/3/4
f 384/2/4 385/2/4 388/2/4
f 388/2/4 385/2/4 389/2/4
f 390/1/4 391/1/4 392/1/4
f 392/1/4 391/1/4 393/1/4
f 396/3/5 395/3/5 394/3/5
f 397/3/5 395/3/5 396/3/5
f 402/3/5 399/3/5 398/3/5
f 403/3/5 399/3/5 402/3/5
f 404/3/5 401/3/5 400/3/5
f 405/3/5 401/3/5 404/3/5
f 410/3/5 407/3/5 406/3/5
f 411/3/5 407/3/5 410/3/5
f 412/3/5 409/3/5 408/3/5
f 413/3/5 409/3/5 412/3/5
f 415/3/5 414/3/5 413/3/5
f 416/3/5 414/3/5 415/3/5
f 419/2/5 418/2/5 417/2/5
f 420/2/5 418/2/5 419/2/5
f 423/2/5 422/2/5 421/2/5
f 424/2/5 422/2/5 423/2/5
f 425/2/5 422/2/5 424/2/5
f 428/2/5 427/2/5 426/2/5
f 429/2/5 427/2/5 428/2/5
f 432/2/5 431/2/5 430/2/5
f 433/2/5 431/2/5 432/2/5
f 436/2/5 435/2/5 434/2/5
f 437/2/5 435/2/5 436/2/5
f 440/2/5 439/2/5 438/2/5
f 441/2/5 439/2/5 440/2/5
f 444/1/5 443/1/5 442/1/5
f 445/1/5 443/1/5 444/1/5
f 448/1/5 447/1/5 446/1/5
f 449/1/5 447/1/5 448/1/5
f 454/1/5 451/1/5 450/1/5
f 455/1/5 451/1/5 454/1/5
f 456/1/5 453/1/5 452/1/5
f 457/1/5 453/1/5 456/1/5
f 462/1/5 459/1/5 458/1/5
f 463/1/5 459/1/5 462/1/5
f 464/1/5 461/1/5 460/1/5
f 465/1/5 461/1/5 464/1/5
f 468/1/5 467/1/5 466/1/5
f 469/1/5 467/1/5 468/1/5
f 472/1/5 471/1/5 470/1/5
f 473/1/5 471/1/5 472/1/5
f 476/1/5 475/1/5 474/1/5
f 477/1/5 475/1/5 476/1/5
f 480/1/5 479/1/5 478/1/5
f 481/1/5 479/1/5 480/1/5
f 482/3/6 483/3/6 485/3/6
f 485/3/6 483/3/6 486/3/6
f 484/3/6 485/3/6 487/3/6
f 485/3/6 486/3/6 487/3/6
f 487/3/6 486/3/6 488/3/6
f 488/3/6 486/3/6 489/3/6
f 490/3/6 491/3/6 494/3/6
f 494/3/6 491/3/6 495/3/6
f 492/3/6 493/3/6 496/3/6
f 496/3/6 493/3/6 497/3/6
f 498/3/6 499/3/6 500/3/6
f 500/3/6 499/3/6 501/3/6
f 502/3/6 503/3/6 504/3/6
f 504/3/6 503/3/6 505/3/6
f 506/2/6 507/2/6 510/2/6
f 510/2/6 507/2/6 511/2/6
f 508/2/6 509/2/6 513/2/6
f 513/2/6 509/2/6 514/2/6
f 512/2/6 513/2/6 517/2/6
f 517/2/6 513/2/6 518/2/6
f 515/2/6 516/2/6 519/2/6
f 519/2/6 516/2/6 520/2/6
f 521/1/6 522/1/6 523/1/6
f 523/1/6 522/1/6 524/1/6
f 525/1/6 526/1/6 527/1/6
f 527/1/6 526/1/6 528/1/6
f 529/2/6 530/2/6 531/2/6
f 531/2/6 530/2/6 532/2/6
f 533/2/6 534/2/6 535/2/6
f 535/2/6 534/2/6 536/2/6
f 537/2/6 538/2/6 539/2/6
f 539/2/6 538/2/6 540/2/6
f 541/1/6 542/1/6 543/1/6
f 543/1/6 542/1/6 544/1/6
f 545/1/6 546/1/6 547/1/6
f 547/1/6 546/1/6 548/1/6
f 549/1/6 550/1/6 553/1/6
f 553/1/6 550/1/6 554/1/6
f 551/1/6 552/1/6 555/1/6
f 555/1/6 552/1/6 556/1/6
f 557/1/6 558/1/6 561/1/6
f 561/1/6 558/1/6 562/1/6
f 559/1/6 560/1/6 563/1/6
f 563/1/6 560/1/6 564/1/6
f 565/1/6 566/1/6 567/1/6
f 567/1/6 566/1/6 568/1/6
f 569/1/6 570/1/6 571/1/6
f 571/1/6 570/1/6 572/1/6
f 573/1/6 574/1/6 575/1/6
f 575/1/6 574/1/6 576/1/6
f 577/1/6 578/1/6 579/1/6
f 579/1/6 578/1/6 580/1/6
